<?xml version="1.0" encoding="UTF-8"?>
<svg version="1.1" xmlns="http://www.w3.org/2000/svg" width="512" height="512">
<path d="M0 0 C0.81210937 0.48339844 0.81210937 0.48339844 1.640625 0.9765625 C1.640625 1.6365625 1.640625 2.2965625 1.640625 2.9765625 C2.300625 2.9765625 2.960625 2.9765625 3.640625 2.9765625 C3.640625 3.6365625 3.640625 4.2965625 3.640625 4.9765625 C4.300625 4.9765625 4.960625 4.9765625 5.640625 4.9765625 C10.31806459 11.99272188 8.99906799 22.93156124 7.640625 30.9765625 C7.310625 31.3065625 6.980625 31.6365625 6.640625 31.9765625 C6.49625 33.0078125 6.351875 34.0390625 6.203125 35.1015625 C5.640625 38.9765625 5.640625 38.9765625 4.703125 42.2265625 C3.5310667 46.36323886 2.80413546 50.48055693 2.10546875 54.71875 C1.640625 56.9765625 1.640625 56.9765625 0.640625 57.9765625 C0.43105617 59.76371894 0.27250884 61.55700019 0.140625 63.3515625 C-0.09173844 66.49676759 -0.35813469 68.97284157 -1.359375 71.9765625 C-1.55782668 73.80672802 -1.72120397 75.64086164 -1.859375 77.4765625 C-2.09315531 80.58250092 -2.37011074 83.00876972 -3.359375 85.9765625 C-3.45476411 87.35049007 -3.49741833 88.72849689 -3.50463867 90.10571289 C-3.51101852 90.93410172 -3.51739838 91.76249054 -3.52397156 92.61598206 C-3.52508438 93.50970016 -3.5261972 94.40341827 -3.52734375 95.32421875 C-3.53067215 96.2506871 -3.53400055 97.17715546 -3.53742981 98.13169861 C-3.54249553 100.09617619 -3.54483824 102.06066238 -3.54467773 104.02514648 C-3.54684888 107.00324115 -3.5649657 109.98095601 -3.58398438 112.95898438 C-3.58692159 114.87239458 -3.58890419 116.78580653 -3.58984375 118.69921875 C-3.60062202 120.01854149 -3.60062202 120.01854149 -3.61161804 121.36451721 C-3.59224574 126.71948435 -2.9860443 131.63517874 -1.78877258 136.85740662 C-1.359375 138.9765625 -1.359375 138.9765625 -1.359375 141.9765625 C-1.029375 140.9865625 -0.699375 139.9965625 -0.359375 138.9765625 C0.960625 138.9765625 2.280625 138.9765625 3.640625 138.9765625 C3.640625 141.9465625 3.640625 144.9165625 3.640625 147.9765625 C2.650625 147.9765625 1.660625 147.9765625 0.640625 147.9765625 C1.74175309 155.61107683 1.74175309 155.61107683 4.265625 162.8515625 C5.60725011 165.90071048 5.93823893 167.70280924 5.640625 170.9765625 C6.300625 170.9765625 6.960625 170.9765625 7.640625 170.9765625 C8.12260963 172.22547864 8.60108177 173.47575058 9.078125 174.7265625 C9.34496094 175.42265625 9.61179688 176.11875 9.88671875 176.8359375 C10.60209193 178.86715253 11.15428152 180.8800916 11.640625 182.9765625 C12.300625 182.9765625 12.960625 182.9765625 13.640625 182.9765625 C15.640625 185.9765625 15.640625 185.9765625 15.640625 188.9765625 C16.300625 188.9765625 16.960625 188.9765625 17.640625 188.9765625 C21.640625 194.38832721 21.640625 194.38832721 21.640625 196.9765625 C22.300625 196.9765625 22.960625 196.9765625 23.640625 196.9765625 C23.640625 197.6365625 23.640625 198.2965625 23.640625 198.9765625 C24.300625 198.9765625 24.960625 198.9765625 25.640625 198.9765625 C25.640625 199.6365625 25.640625 200.2965625 25.640625 200.9765625 C26.300625 200.9765625 26.960625 200.9765625 27.640625 200.9765625 C27.640625 201.6365625 27.640625 202.2965625 27.640625 202.9765625 C28.300625 202.9765625 28.960625 202.9765625 29.640625 202.9765625 C29.640625 203.6365625 29.640625 204.2965625 29.640625 204.9765625 C30.300625 204.9765625 30.960625 204.9765625 31.640625 204.9765625 C31.640625 205.6365625 31.640625 206.2965625 31.640625 206.9765625 C32.20910156 207.09902344 32.77757812 207.22148437 33.36328125 207.34765625 C35.76751063 208.01160296 37.8230598 208.97807904 40.078125 210.0390625 C46.99188327 212.82292092 54.31698045 213.36203976 61.46875 211.0703125 C63.59904083 210.13244861 65.62722983 209.14193852 67.640625 207.9765625 C67.310625 206.3265625 66.980625 204.6765625 66.640625 202.9765625 C69.97395833 202.9765625 73.30729167 202.9765625 76.640625 202.9765625 C76.640625 202.3165625 76.640625 201.6565625 76.640625 200.9765625 C77.300625 200.9765625 77.960625 200.9765625 78.640625 200.9765625 C78.640625 200.3165625 78.640625 199.6565625 78.640625 198.9765625 C79.300625 198.9765625 79.960625 198.9765625 80.640625 198.9765625 C80.8675 198.2753125 81.094375 197.5740625 81.328125 196.8515625 C82.47210925 194.34569225 83.44109692 192.88858918 85.203125 190.8515625 C87.78280263 188.17052054 87.78280263 188.17052054 88.640625 184.9765625 C89.300625 184.9765625 89.960625 184.9765625 90.640625 184.9765625 C90.723125 184.2959375 90.805625 183.6153125 90.890625 182.9140625 C91.66564976 179.87854884 92.97833854 177.6760736 94.58984375 175.015625 C96.21762382 171.8568845 97.09084596 168.52966704 98.02734375 165.11328125 C98.640625 162.9765625 98.640625 162.9765625 99.640625 160.9765625 C99.49625 160.1103125 99.351875 159.2440625 99.203125 158.3515625 C98.55592246 154.46834726 98.5728304 150.90864958 98.640625 146.9765625 C99.300625 146.9765625 99.960625 146.9765625 100.640625 146.9765625 C100.970625 148.9565625 101.300625 150.9365625 101.640625 152.9765625 C101.640625 150.9965625 101.640625 149.0165625 101.640625 146.9765625 C102.300625 146.9765625 102.960625 146.9765625 103.640625 146.9765625 C103.70121094 146.27789062 103.76179687 145.57921875 103.82421875 144.859375 C103.90800781 143.94929687 103.99179687 143.03921875 104.078125 142.1015625 C104.19994141 140.74417969 104.19994141 140.74417969 104.32421875 139.359375 C104.640625 136.9765625 104.640625 136.9765625 105.640625 134.9765625 C105.86407855 132.95630008 106.0333229 130.92992787 106.17578125 128.90234375 C106.30629883 127.06446289 106.30629883 127.06446289 106.43945312 125.18945312 C106.5699707 123.25875977 106.5699707 123.25875977 106.703125 121.2890625 C106.79400391 120.02126953 106.88488281 118.75347656 106.97851562 117.44726562 C108.04310662 106.62989874 108.04310662 106.62989874 106.640625 95.9765625 C106.51127915 94.56009209 106.41913083 93.13985802 106.359375 91.71875 C106.30330078 90.53345703 106.30330078 90.53345703 106.24609375 89.32421875 C106.17544862 87.6679829 106.10513923 86.01173271 106.03515625 84.35546875 C105.97908203 83.17404297 105.97908203 83.17404297 105.921875 81.96875 C105.89158203 81.25058105 105.86128906 80.53241211 105.83007812 79.79248047 C105.73803888 77.87806663 105.73803888 77.87806663 104.640625 75.9765625 C104.39952967 74.52384106 104.20169387 73.06379661 104.02734375 71.6015625 C103.91567871 70.70655029 103.80401367 69.81153809 103.68896484 68.8894043 C103.51034912 67.44754761 103.51034912 67.44754761 103.328125 65.9765625 C102.35451774 58.46296185 101.1753316 51.05805917 99.515625 43.6640625 C99.25978638 42.5184082 99.25978638 42.5184082 98.9987793 41.34960938 C98.41309235 37.87373921 98.41309235 37.87373921 96.640625 34.9765625 C96.30729167 32.64322917 95.97395833 30.30989583 95.640625 27.9765625 C95.310625 27.6465625 94.980625 27.3165625 94.640625 26.9765625 C94.51348546 24.35985329 94.45541476 21.78125537 94.453125 19.1640625 C94.44087891 18.43896484 94.42863281 17.71386719 94.41601562 16.96679688 C94.40553026 13.14662972 94.49202158 10.21220639 96.640625 6.9765625 C97.300625 6.9765625 97.960625 6.9765625 98.640625 6.9765625 C98.970625 5.6565625 99.300625 4.3365625 99.640625 2.9765625 C100.630625 2.9765625 101.620625 2.9765625 102.640625 2.9765625 C102.640625 2.3165625 102.640625 1.6565625 102.640625 0.9765625 C107.45423784 -1.83512724 112.21069484 -1.64184621 117.640625 -1.0234375 C120.55966911 -0.04028723 123.03208851 1.35518887 125.640625 2.9765625 C126.91038822 3.68681235 128.1811825 4.39522282 129.453125 5.1015625 C131.55071041 6.33543627 133.61576449 7.62665549 135.640625 8.9765625 C135.640625 9.6365625 135.640625 10.2965625 135.640625 10.9765625 C136.300625 10.9765625 136.960625 10.9765625 137.640625 10.9765625 C137.640625 11.6365625 137.640625 12.2965625 137.640625 12.9765625 C138.300625 12.9765625 138.960625 12.9765625 139.640625 12.9765625 C139.640625 13.6365625 139.640625 14.2965625 139.640625 14.9765625 C140.506875 15.3478125 140.506875 15.3478125 141.390625 15.7265625 C143.97002479 17.15956238 145.70184092 18.76080926 147.640625 20.9765625 C147.640625 21.6365625 147.640625 22.2965625 147.640625 22.9765625 C148.300625 22.9765625 148.960625 22.9765625 149.640625 22.9765625 C149.640625 23.6365625 149.640625 24.2965625 149.640625 24.9765625 C150.300625 24.9765625 150.960625 24.9765625 151.640625 24.9765625 C151.640625 25.6365625 151.640625 26.2965625 151.640625 26.9765625 C152.300625 26.9765625 152.960625 26.9765625 153.640625 26.9765625 C157.640625 31.32950368 157.640625 31.32950368 157.640625 34.9765625 C158.300625 34.9765625 158.960625 34.9765625 159.640625 34.9765625 C159.640625 35.6365625 159.640625 36.2965625 159.640625 36.9765625 C160.300625 36.9765625 160.960625 36.9765625 161.640625 36.9765625 C162.300625 38.9565625 162.960625 40.9365625 163.640625 42.9765625 C164.300625 42.9765625 164.960625 42.9765625 165.640625 42.9765625 C167.640625 45.9765625 167.640625 45.9765625 167.640625 48.9765625 C168.300625 48.9765625 168.960625 48.9765625 169.640625 48.9765625 C170.300625 50.9565625 170.960625 52.9365625 171.640625 54.9765625 C172.300625 54.9765625 172.960625 54.9765625 173.640625 54.9765625 C173.640625 56.2965625 173.640625 57.6165625 173.640625 58.9765625 C174.300625 58.9765625 174.960625 58.9765625 175.640625 58.9765625 C179.640625 65.6015625 179.640625 65.6015625 179.640625 68.9765625 C180.300625 68.9765625 180.960625 68.9765625 181.640625 68.9765625 C183.125625 71.9465625 183.125625 71.9465625 184.640625 74.9765625 C185.300625 74.9765625 185.960625 74.9765625 186.640625 74.9765625 C186.970625 77.6165625 187.300625 80.2565625 187.640625 82.9765625 C188.300625 82.9765625 188.960625 82.9765625 189.640625 82.9765625 C189.640625 84.2965625 189.640625 85.6165625 189.640625 86.9765625 C190.300625 86.9765625 190.960625 86.9765625 191.640625 86.9765625 C191.640625 88.2965625 191.640625 89.6165625 191.640625 90.9765625 C192.630625 90.9765625 193.620625 90.9765625 194.640625 90.9765625 C194.77597656 91.55535156 194.91132813 92.13414063 195.05078125 92.73046875 C195.60998497 94.8598869 196.29265605 96.85881991 197.078125 98.9140625 C197.34109375 99.60371094 197.6040625 100.29335937 197.875 101.00390625 C198.77979841 103.33514706 199.69942816 105.65977028 200.640625 107.9765625 C202.125625 107.4815625 202.125625 107.4815625 203.640625 106.9765625 C203.455 107.6571875 203.269375 108.3378125 203.078125 109.0390625 C202.55538557 112.54888441 203.02683923 115.49844313 203.640625 118.9765625 C204.300625 118.9765625 204.960625 118.9765625 205.640625 118.9765625 C207.05439841 121.61560621 208.01302635 124.04776879 208.640625 126.9765625 C208.970625 125.6565625 209.300625 124.3365625 209.640625 122.9765625 C210.300625 122.9765625 210.960625 122.9765625 211.640625 122.9765625 C211.58841797 124.19279297 211.58841797 124.19279297 211.53515625 125.43359375 C211.34591405 133.17450085 212.17771595 139.6479063 214.640625 146.9765625 C216.640625 152.9765625 216.640625 152.9765625 216.640625 154.9765625 C217.300625 154.9765625 217.960625 154.9765625 218.640625 154.9765625 C218.764375 155.9871875 218.888125 156.9978125 219.015625 158.0390625 C219.54855807 161.92783494 219.54855807 161.92783494 220.640625 165.4140625 C221.4139482 168.16902639 221.88738063 170.53993407 222.203125 173.3515625 C222.23855641 176.7802562 222.23855641 176.7802562 223.640625 177.9765625 C223.96160251 180.29473339 224.15283456 182.61435607 224.359375 184.9453125 C224.43128337 186.96836843 224.43128337 186.96836843 225.640625 187.9765625 C227.25933083 195.90569184 227.94578685 203.91222769 228.39453125 211.98046875 C228.54042648 214.81717921 228.54042648 214.81717921 229.13671875 216.87109375 C230.10521827 220.91777006 230.04789397 225.16107978 230.24609375 229.30859375 C230.38437345 233.27190343 230.38437345 233.27190343 231.640625 236.9765625 C231.73450741 238.3083457 231.76855768 239.64464896 231.77001953 240.97973633 C231.77317169 241.80431839 231.77632385 242.62890045 231.77957153 243.47846985 C231.77653519 244.81750618 231.77653519 244.81750618 231.7734375 246.18359375 C231.77487259 247.55991219 231.77487259 247.55991219 231.77633667 248.96403503 C231.77701803 250.9083971 231.77516681 252.85276143 231.77099609 254.79711914 C231.76566552 257.76649126 231.77093309 260.73571085 231.77734375 263.70507812 C231.7766826 265.59375033 231.77540068 267.48242245 231.7734375 269.37109375 C231.77546173 270.25771194 231.77748596 271.14433014 231.77957153 272.05781555 C231.76398512 276.18186714 231.59321433 279.94381254 230.640625 283.9765625 C230.51635284 285.34131418 230.42155656 286.70913845 230.359375 288.078125 C230.32199219 288.81546875 230.28460938 289.5528125 230.24609375 290.3125 C230.17542205 291.84633766 230.10511318 293.38019208 230.03515625 294.9140625 C229.87098828 298.14081231 229.6677794 300.89509931 228.640625 303.9765625 C228.33521831 307.06880526 228.13230189 310.16167969 227.921875 313.26171875 C227.640625 315.9765625 227.640625 315.9765625 226.640625 317.9765625 C226.41204183 319.80522789 226.23036924 321.63996536 226.078125 323.4765625 C225.99433594 324.45625 225.91054688 325.4359375 225.82421875 326.4453125 C225.7148643 327.95300786 225.640625 329.46490656 225.640625 330.9765625 C226.300625 330.9765625 226.960625 330.9765625 227.640625 330.9765625 C227.640625 333.9465625 227.640625 336.9165625 227.640625 339.9765625 C225.990625 339.9765625 224.340625 339.9765625 222.640625 339.9765625 C222.38667969 341.01554687 222.13273437 342.05453125 221.87109375 343.125 C219.98076275 350.80423938 218.033709 358.43472202 215.640625 365.9765625 C214.980625 365.9765625 214.320625 365.9765625 213.640625 365.9765625 C213.7025 366.6571875 213.764375 367.3378125 213.828125 368.0390625 C213.640625 370.9765625 213.640625 370.9765625 212.078125 374.6015625 C210.24075482 377.88143549 210.24075482 377.88143549 211.640625 380.9765625 C211.68016734 383.30956075 211.68464232 385.64364439 211.640625 387.9765625 C209.990625 387.6465625 208.340625 387.3165625 206.640625 386.9765625 C205.155625 390.4415625 205.155625 390.4415625 203.640625 393.9765625 C202.980625 393.9765625 202.320625 393.9765625 201.640625 393.9765625 C201.640625 395.2965625 201.640625 396.6165625 201.640625 397.9765625 C200.980625 397.9765625 200.320625 397.9765625 199.640625 397.9765625 C199.52847656 398.52828125 199.41632813 399.08 199.30078125 399.6484375 C198.52701727 402.37721461 197.37244806 404.70429193 196.078125 407.2265625 C195.62308594 408.11859375 195.16804688 409.010625 194.69921875 409.9296875 C194.34988281 410.60515625 194.00054687 411.280625 193.640625 411.9765625 C192.980625 411.9765625 192.320625 411.9765625 191.640625 411.9765625 C191.49625 412.5953125 191.351875 413.2140625 191.203125 413.8515625 C190.640625 415.9765625 190.640625 415.9765625 189.640625 417.9765625 C188.980625 417.9765625 188.320625 417.9765625 187.640625 417.9765625 C187.599375 418.6571875 187.558125 419.3378125 187.515625 420.0390625 C186.47380606 423.53659752 184.93556261 425.22846555 182.51171875 427.890625 C180.30994253 430.34521478 178.26506134 432.90354792 176.203125 435.4765625 C172.57637492 439.92618865 168.78310408 444.01146918 164.640625 447.9765625 C163.3721875 449.2759375 163.3721875 449.2759375 162.078125 450.6015625 C154.50904605 457.9765625 154.50904605 457.9765625 151.640625 457.9765625 C151.640625 458.6365625 151.640625 459.2965625 151.640625 459.9765625 C150.980625 459.9765625 150.320625 459.9765625 149.640625 459.9765625 C149.640625 460.6365625 149.640625 461.2965625 149.640625 461.9765625 C148.980625 461.9765625 148.320625 461.9765625 147.640625 461.9765625 C147.640625 463.2965625 147.640625 464.6165625 147.640625 465.9765625 C147.640625 466.6365625 147.640625 467.2965625 147.640625 467.9765625 C146.8775 467.7909375 146.114375 467.6053125 145.328125 467.4140625 C142.55095125 466.74837077 142.55095125 466.74837077 139.640625 467.9765625 C139.640625 468.6365625 139.640625 469.2965625 139.640625 469.9765625 C134.22886029 473.9765625 134.22886029 473.9765625 131.640625 473.9765625 C131.640625 474.6365625 131.640625 475.2965625 131.640625 475.9765625 C128.670625 477.6265625 125.700625 479.2765625 122.640625 480.9765625 C122.970625 481.9665625 123.300625 482.9565625 123.640625 483.9765625 C122.5578125 483.63625 122.5578125 483.63625 121.453125 483.2890625 C117.85006336 482.88872232 116.62892769 484.06098385 113.640625 485.9765625 C112.320625 485.9765625 111.000625 485.9765625 109.640625 485.9765625 C109.640625 486.6365625 109.640625 487.2965625 109.640625 487.9765625 C108.650625 488.3065625 107.660625 488.6365625 106.640625 488.9765625 C106.970625 489.9665625 107.300625 490.9565625 107.640625 491.9765625 C106.93679688 491.76257813 106.23296875 491.54859375 105.5078125 491.328125 C101.87018739 490.88209467 100.06093717 491.80233782 96.765625 493.3515625 C92.24146525 495.37097783 88.54453036 496.5406598 83.640625 496.9765625 C83.310625 497.3065625 82.980625 497.6365625 82.640625 497.9765625 C79.99691999 498.51525765 77.36001141 499.01269815 74.703125 499.4765625 C69.52484735 500.24130622 69.52484735 500.24130622 64.640625 501.9765625 C60.45831194 502.22243507 56.26683967 502.16177982 52.078125 502.1640625 C50.92248047 502.17630859 49.76683594 502.18855469 48.57617188 502.20117188 C41.94094288 502.2124755 36.0371933 501.78209962 29.640625 499.9765625 C29.310625 499.6465625 28.980625 499.3165625 28.640625 498.9765625 C27.19010113 498.64825463 25.72936452 498.36475857 24.265625 498.1015625 C16.85880645 496.67758304 9.61341362 494.88084789 2.640625 491.9765625 C2.640625 491.3165625 2.640625 490.6565625 2.640625 489.9765625 C1.82078125 489.8940625 1.0009375 489.8115625 0.15625 489.7265625 C-4.19831009 488.79758968 -7.68737397 487.03094399 -11.609375 484.9765625 C-12.32867187 484.60789062 -13.04796875 484.23921875 -13.7890625 483.859375 C-15.64918033 482.90493252 -17.5046129 481.94137148 -19.359375 480.9765625 C-20.019375 480.6465625 -20.679375 480.3165625 -21.359375 479.9765625 C-21.359375 479.3165625 -21.359375 478.6565625 -21.359375 477.9765625 C-21.93171875 477.86183594 -22.5040625 477.74710937 -23.09375 477.62890625 C-25.57409156 476.91473894 -27.42306197 475.90348378 -29.609375 474.5390625 C-30.66898438 473.89130859 -30.66898438 473.89130859 -31.75 473.23046875 C-32.28109375 472.81667969 -32.8121875 472.40289062 -33.359375 471.9765625 C-33.359375 471.3165625 -33.359375 470.6565625 -33.359375 469.9765625 C-35.339375 469.3165625 -37.319375 468.6565625 -39.359375 467.9765625 C-39.359375 467.3165625 -39.359375 466.6565625 -39.359375 465.9765625 C-40.019375 465.9765625 -40.679375 465.9765625 -41.359375 465.9765625 C-41.359375 465.3165625 -41.359375 464.6565625 -41.359375 463.9765625 C-42.019375 463.9765625 -42.679375 463.9765625 -43.359375 463.9765625 C-43.359375 463.3165625 -43.359375 462.6565625 -43.359375 461.9765625 C-44.019375 461.9765625 -44.679375 461.9765625 -45.359375 461.9765625 C-45.359375 461.3165625 -45.359375 460.6565625 -45.359375 459.9765625 C-48.41201164 458.99535786 -50.30673836 458.99535786 -53.359375 459.9765625 C-53.359375 457.9765625 -53.359375 455.9765625 -53.359375 453.9765625 C-54.019375 453.9765625 -54.679375 453.9765625 -55.359375 453.9765625 C-55.359375 453.3165625 -55.359375 452.6565625 -55.359375 451.9765625 C-56.019375 451.9765625 -56.679375 451.9765625 -57.359375 451.9765625 C-57.359375 451.3165625 -57.359375 450.6565625 -57.359375 449.9765625 C-58.019375 449.9765625 -58.679375 449.9765625 -59.359375 449.9765625 C-59.359375 449.3165625 -59.359375 448.6565625 -59.359375 447.9765625 C-60.019375 447.9765625 -60.679375 447.9765625 -61.359375 447.9765625 C-61.359375 447.3165625 -61.359375 446.6565625 -61.359375 445.9765625 C-62.019375 445.9765625 -62.679375 445.9765625 -63.359375 445.9765625 C-63.359375 445.3165625 -63.359375 444.6565625 -63.359375 443.9765625 C-64.019375 443.9765625 -64.679375 443.9765625 -65.359375 443.9765625 C-65.359375 443.3165625 -65.359375 442.6565625 -65.359375 441.9765625 C-66.019375 441.9765625 -66.679375 441.9765625 -67.359375 441.9765625 C-69.234375 439.9296875 -69.234375 439.9296875 -71.359375 437.2265625 C-72.41125 435.90398437 -72.41125 435.90398437 -73.484375 434.5546875 C-75.05245183 432.39858186 -76.27263984 430.39907629 -77.359375 427.9765625 C-78.019375 427.9765625 -78.679375 427.9765625 -79.359375 427.9765625 C-80.019375 425.9965625 -80.679375 424.0165625 -81.359375 421.9765625 C-82.019375 421.9765625 -82.679375 421.9765625 -83.359375 421.9765625 C-85.359375 418.9765625 -85.359375 418.9765625 -85.359375 415.9765625 C-86.019375 415.9765625 -86.679375 415.9765625 -87.359375 415.9765625 C-89.359375 412.9765625 -89.359375 412.9765625 -89.359375 409.9765625 C-90.019375 409.9765625 -90.679375 409.9765625 -91.359375 409.9765625 C-91.359375 408.6565625 -91.359375 407.3365625 -91.359375 405.9765625 C-92.019375 405.9765625 -92.679375 405.9765625 -93.359375 405.9765625 C-93.359375 404.6565625 -93.359375 403.3365625 -93.359375 401.9765625 C-94.019375 401.9765625 -94.679375 401.9765625 -95.359375 401.9765625 C-96.349375 399.9965625 -97.339375 398.0165625 -98.359375 395.9765625 C-99.349375 395.9765625 -100.339375 395.9765625 -101.359375 395.9765625 C-101.2975 394.6153125 -101.2975 394.6153125 -101.234375 393.2265625 C-101.35840749 390.00171774 -101.89071398 388.73030191 -103.359375 385.9765625 C-103.359375 384.6565625 -103.359375 383.3365625 -103.359375 381.9765625 C-104.019375 381.9765625 -104.679375 381.9765625 -105.359375 381.9765625 C-105.9471875 380.3678125 -105.9471875 380.3678125 -106.546875 378.7265625 C-107.86801259 375.17013523 -109.34464615 371.70448976 -110.859375 368.2265625 C-113.00743229 363.13296558 -114.43628676 358.10470809 -115.67578125 352.7265625 C-116.44269221 349.64138927 -117.50753987 346.78083933 -118.66796875 343.828125 C-120.84790748 337.99032298 -121.65003204 332.17288161 -122.11328125 325.98046875 C-122.15016825 323.98055457 -122.15016825 323.98055457 -123.359375 322.9765625 C-124.09123647 319.34185554 -124.56288497 315.6708536 -125.07307434 311.99946594 C-125.33401349 310.15575833 -125.61305995 308.31463646 -125.89404297 306.47387695 C-127.92279769 291.32107938 -127.62486943 276.09669514 -127.55499268 260.84222412 C-127.54406973 257.82724393 -127.54452727 254.81230836 -127.54513073 251.79731178 C-127.54485909 248.88053107 -127.53938242 245.96377953 -127.53212929 243.04700851 C-127.52896011 241.66035557 -127.52697933 240.27369936 -127.52623558 238.887043 C-127.52406582 236.96195523 -127.51451971 235.03688004 -127.50463867 233.11181641 C-127.50082687 232.02027252 -127.49701508 230.92872864 -127.49308777 229.80410767 C-127.37620186 227.33239022 -127.00816649 225.34375102 -126.359375 222.9765625 C-126.10581763 219.53240825 -125.91872647 216.09354701 -125.75390625 212.64453125 C-125.46096985 207.1797522 -125.46096985 207.1797522 -124.359375 204.9765625 C-124.15518565 202.98004441 -123.99415204 200.97896429 -123.859375 198.9765625 C-123.47048611 193.19878472 -123.47048611 193.19878472 -122.359375 190.9765625 C-122.05145631 188.64578907 -121.85042226 186.31414354 -121.640625 183.97265625 C-121.359375 181.9765625 -121.359375 181.9765625 -120.359375 180.9765625 C-119.88790463 178.56215375 -119.45771306 176.15133982 -119.046875 173.7265625 C-117.48063707 164.95189158 -115.37817667 156.33501169 -111.734375 148.1640625 C-109.17281663 142.22590447 -107.7512817 137.40893572 -109.359375 130.9765625 C-108.369375 131.3065625 -107.379375 131.6365625 -106.359375 131.9765625 C-106.20082031 131.38230469 -106.04226562 130.78804687 -105.87890625 130.17578125 C-104.2268209 124.30677086 -102.08801627 118.91549557 -99.4453125 113.421875 C-98.48638227 111.26255728 -97.84184344 109.28168951 -97.359375 106.9765625 C-96.699375 106.9765625 -96.039375 106.9765625 -95.359375 106.9765625 C-95.42125 106.2546875 -95.483125 105.5328125 -95.546875 104.7890625 C-95.32189689 101.4143909 -94.16509005 99.79347798 -92.359375 96.9765625 C-91.66358046 94.78525716 -91.66358046 94.78525716 -91.359375 92.9765625 C-90.699375 92.9765625 -90.039375 92.9765625 -89.359375 92.9765625 C-89.359375 91.6565625 -89.359375 90.3365625 -89.359375 88.9765625 C-88.699375 88.9765625 -88.039375 88.9765625 -87.359375 88.9765625 C-87.24722656 88.42484375 -87.13507813 87.873125 -87.01953125 87.3046875 C-86.24576727 84.57591039 -85.09119806 82.24883307 -83.796875 79.7265625 C-83.34183594 78.83453125 -82.88679688 77.9425 -82.41796875 77.0234375 C-82.06863281 76.34796875 -81.71929687 75.6725 -81.359375 74.9765625 C-80.699375 74.9765625 -80.039375 74.9765625 -79.359375 74.9765625 C-79.359375 73.6565625 -79.359375 72.3365625 -79.359375 70.9765625 C-78.699375 70.9765625 -78.039375 70.9765625 -77.359375 70.9765625 C-77.2046875 70.1721875 -77.2046875 70.1721875 -77.046875 69.3515625 C-76.17844803 66.35154206 -74.80317204 63.738609 -73.359375 60.9765625 C-72.699375 60.9765625 -72.039375 60.9765625 -71.359375 60.9765625 C-71.17375 60.1103125 -71.17375 60.1103125 -70.984375 59.2265625 C-70.35294136 56.95340138 -69.41079947 55.07941145 -68.359375 52.9765625 C-68.359375 52.3165625 -68.359375 51.6565625 -68.359375 50.9765625 C-67.369375 50.9765625 -66.379375 50.9765625 -65.359375 50.9765625 C-64.699375 48.9965625 -64.039375 47.0165625 -63.359375 44.9765625 C-62.699375 44.9765625 -62.039375 44.9765625 -61.359375 44.9765625 C-60.369375 42.0065625 -60.369375 42.0065625 -59.359375 38.9765625 C-58.699375 38.9765625 -58.039375 38.9765625 -57.359375 38.9765625 C-57.359375 38.3165625 -57.359375 37.6565625 -57.359375 36.9765625 C-56.699375 36.9765625 -56.039375 36.9765625 -55.359375 36.9765625 C-55.215 36.3578125 -55.070625 35.7390625 -54.921875 35.1015625 C-54.359375 32.9765625 -54.359375 32.9765625 -53.359375 30.9765625 C-52.699375 30.9765625 -52.039375 30.9765625 -51.359375 30.9765625 C-51.359375 30.3165625 -51.359375 29.6565625 -51.359375 28.9765625 C-50.699375 28.9765625 -50.039375 28.9765625 -49.359375 28.9765625 C-49.359375 28.3165625 -49.359375 27.6565625 -49.359375 26.9765625 C-48.699375 26.9765625 -48.039375 26.9765625 -47.359375 26.9765625 C-47.0809375 25.955625 -47.0809375 25.955625 -46.796875 24.9140625 C-43.97704754 19.15180639 -38.5275927 14.66814657 -33.359375 10.9765625 C-32.699375 10.9765625 -32.039375 10.9765625 -31.359375 10.9765625 C-31.359375 10.3165625 -31.359375 9.6565625 -31.359375 8.9765625 C-28.54886951 6.69953259 -25.4367197 4.87031308 -22.359375 2.9765625 C-21.71355469 2.55375 -21.06773437 2.1309375 -20.40234375 1.6953125 C-14.42588696 -1.8276515 -6.46992015 -2.80648854 0 0 Z M68.640625 204.9765625 C70.125625 205.9665625 70.125625 205.9665625 71.640625 206.9765625 C71.970625 206.3165625 72.300625 205.6565625 72.640625 204.9765625 C71.320625 204.9765625 70.000625 204.9765625 68.640625 204.9765625 Z M208.640625 379.9765625 C207.9591427 381.86835453 207.9591427 381.86835453 207.640625 383.9765625 C208.300625 384.6365625 208.960625 385.2965625 209.640625 385.9765625 C209.640625 383.9965625 209.640625 382.0165625 209.640625 379.9765625 C209.310625 379.9765625 208.980625 379.9765625 208.640625 379.9765625 Z " fill="#E6DEDF" transform="translate(205.359375,5.0234375)"/>
<path d="M0 0 C0.81210937 0.48339844 0.81210937 0.48339844 1.640625 0.9765625 C1.640625 1.6365625 1.640625 2.2965625 1.640625 2.9765625 C2.300625 2.9765625 2.960625 2.9765625 3.640625 2.9765625 C3.640625 3.6365625 3.640625 4.2965625 3.640625 4.9765625 C4.300625 4.9765625 4.960625 4.9765625 5.640625 4.9765625 C10.31806459 11.99272188 8.99906799 22.93156124 7.640625 30.9765625 C7.310625 31.3065625 6.980625 31.6365625 6.640625 31.9765625 C6.49625 33.0078125 6.351875 34.0390625 6.203125 35.1015625 C5.640625 38.9765625 5.640625 38.9765625 4.703125 42.2265625 C3.5310667 46.36323886 2.80413546 50.48055693 2.10546875 54.71875 C1.640625 56.9765625 1.640625 56.9765625 0.640625 57.9765625 C0.43105617 59.76371894 0.27250884 61.55700019 0.140625 63.3515625 C-0.09173844 66.49676759 -0.35813469 68.97284157 -1.359375 71.9765625 C-1.55782668 73.80672802 -1.72120397 75.64086164 -1.859375 77.4765625 C-2.09315531 80.58250092 -2.37011074 83.00876972 -3.359375 85.9765625 C-3.45476411 87.35049007 -3.49741833 88.72849689 -3.50463867 90.10571289 C-3.51101852 90.93410172 -3.51739838 91.76249054 -3.52397156 92.61598206 C-3.52508438 93.50970016 -3.5261972 94.40341827 -3.52734375 95.32421875 C-3.53067215 96.2506871 -3.53400055 97.17715546 -3.53742981 98.13169861 C-3.54249553 100.09617619 -3.54483824 102.06066238 -3.54467773 104.02514648 C-3.54684888 107.00324115 -3.5649657 109.98095601 -3.58398438 112.95898438 C-3.58692159 114.87239458 -3.58890419 116.78580653 -3.58984375 118.69921875 C-3.60062202 120.01854149 -3.60062202 120.01854149 -3.61161804 121.36451721 C-3.59224574 126.71948435 -2.9860443 131.63517874 -1.78877258 136.85740662 C-1.359375 138.9765625 -1.359375 138.9765625 -1.359375 141.9765625 C-1.029375 140.9865625 -0.699375 139.9965625 -0.359375 138.9765625 C0.960625 138.9765625 2.280625 138.9765625 3.640625 138.9765625 C3.640625 141.9465625 3.640625 144.9165625 3.640625 147.9765625 C2.650625 147.9765625 1.660625 147.9765625 0.640625 147.9765625 C1.74175309 155.61107683 1.74175309 155.61107683 4.265625 162.8515625 C5.60725011 165.90071048 5.93823893 167.70280924 5.640625 170.9765625 C6.300625 170.9765625 6.960625 170.9765625 7.640625 170.9765625 C8.12260963 172.22547864 8.60108177 173.47575058 9.078125 174.7265625 C9.34496094 175.42265625 9.61179688 176.11875 9.88671875 176.8359375 C10.60209193 178.86715253 11.15428152 180.8800916 11.640625 182.9765625 C12.300625 182.9765625 12.960625 182.9765625 13.640625 182.9765625 C15.640625 185.9765625 15.640625 185.9765625 15.640625 188.9765625 C16.300625 188.9765625 16.960625 188.9765625 17.640625 188.9765625 C21.640625 194.38832721 21.640625 194.38832721 21.640625 196.9765625 C22.300625 196.9765625 22.960625 196.9765625 23.640625 196.9765625 C23.640625 197.6365625 23.640625 198.2965625 23.640625 198.9765625 C24.300625 198.9765625 24.960625 198.9765625 25.640625 198.9765625 C25.640625 199.6365625 25.640625 200.2965625 25.640625 200.9765625 C26.300625 200.9765625 26.960625 200.9765625 27.640625 200.9765625 C27.640625 201.6365625 27.640625 202.2965625 27.640625 202.9765625 C28.300625 202.9765625 28.960625 202.9765625 29.640625 202.9765625 C29.640625 203.6365625 29.640625 204.2965625 29.640625 204.9765625 C30.300625 204.9765625 30.960625 204.9765625 31.640625 204.9765625 C31.640625 205.6365625 31.640625 206.2965625 31.640625 206.9765625 C32.20910156 207.09902344 32.77757812 207.22148437 33.36328125 207.34765625 C35.76751063 208.01160296 37.8230598 208.97807904 40.078125 210.0390625 C46.99188327 212.82292092 54.31698045 213.36203976 61.46875 211.0703125 C63.59904083 210.13244861 65.62722983 209.14193852 67.640625 207.9765625 C67.310625 206.3265625 66.980625 204.6765625 66.640625 202.9765625 C69.97395833 202.9765625 73.30729167 202.9765625 76.640625 202.9765625 C76.640625 202.3165625 76.640625 201.6565625 76.640625 200.9765625 C77.300625 200.9765625 77.960625 200.9765625 78.640625 200.9765625 C78.640625 200.3165625 78.640625 199.6565625 78.640625 198.9765625 C79.300625 198.9765625 79.960625 198.9765625 80.640625 198.9765625 C80.8675 198.2753125 81.094375 197.5740625 81.328125 196.8515625 C82.47210925 194.34569225 83.44109692 192.88858918 85.203125 190.8515625 C87.78280263 188.17052054 87.78280263 188.17052054 88.640625 184.9765625 C89.300625 184.9765625 89.960625 184.9765625 90.640625 184.9765625 C90.723125 184.2959375 90.805625 183.6153125 90.890625 182.9140625 C91.66564976 179.87854884 92.97833854 177.6760736 94.58984375 175.015625 C96.21762382 171.8568845 97.09084596 168.52966704 98.02734375 165.11328125 C98.640625 162.9765625 98.640625 162.9765625 99.640625 160.9765625 C99.49625 160.1103125 99.351875 159.2440625 99.203125 158.3515625 C98.55592246 154.46834726 98.5728304 150.90864958 98.640625 146.9765625 C99.300625 146.9765625 99.960625 146.9765625 100.640625 146.9765625 C100.970625 148.9565625 101.300625 150.9365625 101.640625 152.9765625 C101.640625 150.9965625 101.640625 149.0165625 101.640625 146.9765625 C102.300625 146.9765625 102.960625 146.9765625 103.640625 146.9765625 C103.70121094 146.27789062 103.76179687 145.57921875 103.82421875 144.859375 C103.90800781 143.94929687 103.99179687 143.03921875 104.078125 142.1015625 C104.19994141 140.74417969 104.19994141 140.74417969 104.32421875 139.359375 C104.640625 136.9765625 104.640625 136.9765625 105.640625 134.9765625 C105.86407855 132.95630008 106.0333229 130.92992787 106.17578125 128.90234375 C106.30629883 127.06446289 106.30629883 127.06446289 106.43945312 125.18945312 C106.5699707 123.25875977 106.5699707 123.25875977 106.703125 121.2890625 C106.79400391 120.02126953 106.88488281 118.75347656 106.97851562 117.44726562 C108.04310662 106.62989874 108.04310662 106.62989874 106.640625 95.9765625 C106.51127915 94.56009209 106.41913083 93.13985802 106.359375 91.71875 C106.30330078 90.53345703 106.30330078 90.53345703 106.24609375 89.32421875 C106.17544862 87.6679829 106.10513923 86.01173271 106.03515625 84.35546875 C105.97908203 83.17404297 105.97908203 83.17404297 105.921875 81.96875 C105.89158203 81.25058105 105.86128906 80.53241211 105.83007812 79.79248047 C105.73803888 77.87806663 105.73803888 77.87806663 104.640625 75.9765625 C104.39952967 74.52384106 104.20169387 73.06379661 104.02734375 71.6015625 C103.91567871 70.70655029 103.80401367 69.81153809 103.68896484 68.8894043 C103.51034912 67.44754761 103.51034912 67.44754761 103.328125 65.9765625 C102.35451774 58.46296185 101.1753316 51.05805917 99.515625 43.6640625 C99.25978638 42.5184082 99.25978638 42.5184082 98.9987793 41.34960938 C98.41309235 37.87373921 98.41309235 37.87373921 96.640625 34.9765625 C96.30729167 32.64322917 95.97395833 30.30989583 95.640625 27.9765625 C95.310625 27.6465625 94.980625 27.3165625 94.640625 26.9765625 C94.51348546 24.35985329 94.45541476 21.78125537 94.453125 19.1640625 C94.44087891 18.43896484 94.42863281 17.71386719 94.41601562 16.96679688 C94.40553026 13.14662972 94.49202158 10.21220639 96.640625 6.9765625 C97.300625 6.9765625 97.960625 6.9765625 98.640625 6.9765625 C98.970625 5.6565625 99.300625 4.3365625 99.640625 2.9765625 C100.630625 2.9765625 101.620625 2.9765625 102.640625 2.9765625 C102.640625 2.3165625 102.640625 1.6565625 102.640625 0.9765625 C107.45423784 -1.83512724 112.21069484 -1.64184621 117.640625 -1.0234375 C120.55966911 -0.04028723 123.03208851 1.35518887 125.640625 2.9765625 C126.91038822 3.68681235 128.1811825 4.39522282 129.453125 5.1015625 C131.55071041 6.33543627 133.61576449 7.62665549 135.640625 8.9765625 C135.640625 9.6365625 135.640625 10.2965625 135.640625 10.9765625 C136.300625 10.9765625 136.960625 10.9765625 137.640625 10.9765625 C137.640625 11.6365625 137.640625 12.2965625 137.640625 12.9765625 C138.300625 12.9765625 138.960625 12.9765625 139.640625 12.9765625 C139.640625 13.6365625 139.640625 14.2965625 139.640625 14.9765625 C140.506875 15.3478125 140.506875 15.3478125 141.390625 15.7265625 C143.97002479 17.15956238 145.70184092 18.76080926 147.640625 20.9765625 C147.640625 21.6365625 147.640625 22.2965625 147.640625 22.9765625 C148.300625 22.9765625 148.960625 22.9765625 149.640625 22.9765625 C149.640625 23.6365625 149.640625 24.2965625 149.640625 24.9765625 C150.300625 24.9765625 150.960625 24.9765625 151.640625 24.9765625 C151.640625 25.6365625 151.640625 26.2965625 151.640625 26.9765625 C152.300625 26.9765625 152.960625 26.9765625 153.640625 26.9765625 C157.640625 31.32950368 157.640625 31.32950368 157.640625 34.9765625 C158.300625 34.9765625 158.960625 34.9765625 159.640625 34.9765625 C159.640625 35.6365625 159.640625 36.2965625 159.640625 36.9765625 C160.300625 36.9765625 160.960625 36.9765625 161.640625 36.9765625 C162.300625 38.9565625 162.960625 40.9365625 163.640625 42.9765625 C164.300625 42.9765625 164.960625 42.9765625 165.640625 42.9765625 C167.640625 45.9765625 167.640625 45.9765625 167.640625 48.9765625 C168.300625 48.9765625 168.960625 48.9765625 169.640625 48.9765625 C170.300625 50.9565625 170.960625 52.9365625 171.640625 54.9765625 C172.300625 54.9765625 172.960625 54.9765625 173.640625 54.9765625 C173.640625 56.2965625 173.640625 57.6165625 173.640625 58.9765625 C174.300625 58.9765625 174.960625 58.9765625 175.640625 58.9765625 C179.640625 65.6015625 179.640625 65.6015625 179.640625 68.9765625 C180.300625 68.9765625 180.960625 68.9765625 181.640625 68.9765625 C183.125625 71.9465625 183.125625 71.9465625 184.640625 74.9765625 C185.300625 74.9765625 185.960625 74.9765625 186.640625 74.9765625 C186.970625 77.6165625 187.300625 80.2565625 187.640625 82.9765625 C188.300625 82.9765625 188.960625 82.9765625 189.640625 82.9765625 C189.640625 84.2965625 189.640625 85.6165625 189.640625 86.9765625 C190.300625 86.9765625 190.960625 86.9765625 191.640625 86.9765625 C191.640625 88.2965625 191.640625 89.6165625 191.640625 90.9765625 C192.630625 90.9765625 193.620625 90.9765625 194.640625 90.9765625 C194.77597656 91.55535156 194.91132813 92.13414063 195.05078125 92.73046875 C195.60998497 94.8598869 196.29265605 96.85881991 197.078125 98.9140625 C197.34109375 99.60371094 197.6040625 100.29335937 197.875 101.00390625 C198.77979841 103.33514706 199.69942816 105.65977028 200.640625 107.9765625 C202.125625 107.4815625 202.125625 107.4815625 203.640625 106.9765625 C203.455 107.6571875 203.269375 108.3378125 203.078125 109.0390625 C202.55538557 112.54888441 203.02683923 115.49844313 203.640625 118.9765625 C204.300625 118.9765625 204.960625 118.9765625 205.640625 118.9765625 C207.05439841 121.61560621 208.01302635 124.04776879 208.640625 126.9765625 C208.970625 125.6565625 209.300625 124.3365625 209.640625 122.9765625 C210.300625 122.9765625 210.960625 122.9765625 211.640625 122.9765625 C211.58841797 124.19279297 211.58841797 124.19279297 211.53515625 125.43359375 C211.34591405 133.17450085 212.17771595 139.6479063 214.640625 146.9765625 C216.640625 152.9765625 216.640625 152.9765625 216.640625 154.9765625 C217.300625 154.9765625 217.960625 154.9765625 218.640625 154.9765625 C218.764375 155.9871875 218.888125 156.9978125 219.015625 158.0390625 C219.54855807 161.92783494 219.54855807 161.92783494 220.640625 165.4140625 C221.4139482 168.16902639 221.88738063 170.53993407 222.203125 173.3515625 C222.23855641 176.7802562 222.23855641 176.7802562 223.640625 177.9765625 C223.96160251 180.29473339 224.15283456 182.61435607 224.359375 184.9453125 C224.43128337 186.96836843 224.43128337 186.96836843 225.640625 187.9765625 C227.25933083 195.90569184 227.94578685 203.91222769 228.39453125 211.98046875 C228.54042648 214.81717921 228.54042648 214.81717921 229.13671875 216.87109375 C230.10521827 220.91777006 230.04789397 225.16107978 230.24609375 229.30859375 C230.38437345 233.27190343 230.38437345 233.27190343 231.640625 236.9765625 C231.73450741 238.3083457 231.76855768 239.64464896 231.77001953 240.97973633 C231.77317169 241.80431839 231.77632385 242.62890045 231.77957153 243.47846985 C231.77653519 244.81750618 231.77653519 244.81750618 231.7734375 246.18359375 C231.77487259 247.55991219 231.77487259 247.55991219 231.77633667 248.96403503 C231.77701803 250.9083971 231.77516681 252.85276143 231.77099609 254.79711914 C231.76566552 257.76649126 231.77093309 260.73571085 231.77734375 263.70507812 C231.7766826 265.59375033 231.77540068 267.48242245 231.7734375 269.37109375 C231.77546173 270.25771194 231.77748596 271.14433014 231.77957153 272.05781555 C231.76398512 276.18186714 231.59321433 279.94381254 230.640625 283.9765625 C230.51635284 285.34131418 230.42155656 286.70913845 230.359375 288.078125 C230.32199219 288.81546875 230.28460938 289.5528125 230.24609375 290.3125 C230.17542205 291.84633766 230.10511318 293.38019208 230.03515625 294.9140625 C229.87098828 298.14081231 229.6677794 300.89509931 228.640625 303.9765625 C228.33521831 307.06880526 228.13230189 310.16167969 227.921875 313.26171875 C227.640625 315.9765625 227.640625 315.9765625 226.640625 317.9765625 C226.41204183 319.80522789 226.23036924 321.63996536 226.078125 323.4765625 C225.99433594 324.45625 225.91054688 325.4359375 225.82421875 326.4453125 C225.7148643 327.95300786 225.640625 329.46490656 225.640625 330.9765625 C226.300625 330.9765625 226.960625 330.9765625 227.640625 330.9765625 C227.640625 333.9465625 227.640625 336.9165625 227.640625 339.9765625 C225.990625 339.9765625 224.340625 339.9765625 222.640625 339.9765625 C222.38667969 341.01554687 222.13273437 342.05453125 221.87109375 343.125 C219.98076275 350.80423938 218.033709 358.43472202 215.640625 365.9765625 C214.980625 365.9765625 214.320625 365.9765625 213.640625 365.9765625 C213.7025 366.6571875 213.764375 367.3378125 213.828125 368.0390625 C213.640625 370.9765625 213.640625 370.9765625 212.078125 374.6015625 C210.24075482 377.88143549 210.24075482 377.88143549 211.640625 380.9765625 C211.68016734 383.30956075 211.68464232 385.64364439 211.640625 387.9765625 C209.990625 387.6465625 208.340625 387.3165625 206.640625 386.9765625 C205.155625 390.4415625 205.155625 390.4415625 203.640625 393.9765625 C202.980625 393.9765625 202.320625 393.9765625 201.640625 393.9765625 C201.640625 395.2965625 201.640625 396.6165625 201.640625 397.9765625 C200.980625 397.9765625 200.320625 397.9765625 199.640625 397.9765625 C199.52847656 398.52828125 199.41632813 399.08 199.30078125 399.6484375 C198.52701727 402.37721461 197.37244806 404.70429193 196.078125 407.2265625 C195.62308594 408.11859375 195.16804688 409.010625 194.69921875 409.9296875 C194.34988281 410.60515625 194.00054687 411.280625 193.640625 411.9765625 C192.980625 411.9765625 192.320625 411.9765625 191.640625 411.9765625 C191.49625 412.5953125 191.351875 413.2140625 191.203125 413.8515625 C190.640625 415.9765625 190.640625 415.9765625 189.640625 417.9765625 C188.980625 417.9765625 188.320625 417.9765625 187.640625 417.9765625 C187.599375 418.6571875 187.558125 419.3378125 187.515625 420.0390625 C186.47380606 423.53659752 184.93556261 425.22846555 182.51171875 427.890625 C180.30994253 430.34521478 178.26506134 432.90354792 176.203125 435.4765625 C172.57637492 439.92618865 168.78310408 444.01146918 164.640625 447.9765625 C163.3721875 449.2759375 163.3721875 449.2759375 162.078125 450.6015625 C154.50904605 457.9765625 154.50904605 457.9765625 151.640625 457.9765625 C151.640625 458.6365625 151.640625 459.2965625 151.640625 459.9765625 C150.980625 459.9765625 150.320625 459.9765625 149.640625 459.9765625 C149.640625 460.6365625 149.640625 461.2965625 149.640625 461.9765625 C148.980625 461.9765625 148.320625 461.9765625 147.640625 461.9765625 C147.640625 463.2965625 147.640625 464.6165625 147.640625 465.9765625 C147.640625 466.6365625 147.640625 467.2965625 147.640625 467.9765625 C146.8775 467.7909375 146.114375 467.6053125 145.328125 467.4140625 C142.55095125 466.74837077 142.55095125 466.74837077 139.640625 467.9765625 C139.640625 468.6365625 139.640625 469.2965625 139.640625 469.9765625 C134.22886029 473.9765625 134.22886029 473.9765625 131.640625 473.9765625 C131.640625 474.6365625 131.640625 475.2965625 131.640625 475.9765625 C128.670625 477.6265625 125.700625 479.2765625 122.640625 480.9765625 C122.970625 481.9665625 123.300625 482.9565625 123.640625 483.9765625 C122.5578125 483.63625 122.5578125 483.63625 121.453125 483.2890625 C117.85006336 482.88872232 116.62892769 484.06098385 113.640625 485.9765625 C112.320625 485.9765625 111.000625 485.9765625 109.640625 485.9765625 C109.640625 486.6365625 109.640625 487.2965625 109.640625 487.9765625 C108.650625 488.3065625 107.660625 488.6365625 106.640625 488.9765625 C106.970625 489.9665625 107.300625 490.9565625 107.640625 491.9765625 C106.93679688 491.76257813 106.23296875 491.54859375 105.5078125 491.328125 C101.87018739 490.88209467 100.06093717 491.80233782 96.765625 493.3515625 C92.24146525 495.37097783 88.54453036 496.5406598 83.640625 496.9765625 C83.310625 497.3065625 82.980625 497.6365625 82.640625 497.9765625 C79.99691999 498.51525765 77.36001141 499.01269815 74.703125 499.4765625 C69.52484735 500.24130622 69.52484735 500.24130622 64.640625 501.9765625 C60.45831194 502.22243507 56.26683967 502.16177982 52.078125 502.1640625 C50.92248047 502.17630859 49.76683594 502.18855469 48.57617188 502.20117188 C41.94094288 502.2124755 36.0371933 501.78209962 29.640625 499.9765625 C29.310625 499.6465625 28.980625 499.3165625 28.640625 498.9765625 C27.19010113 498.64825463 25.72936452 498.36475857 24.265625 498.1015625 C16.85880645 496.67758304 9.61341362 494.88084789 2.640625 491.9765625 C2.640625 491.3165625 2.640625 490.6565625 2.640625 489.9765625 C1.82078125 489.8940625 1.0009375 489.8115625 0.15625 489.7265625 C-4.19831009 488.79758968 -7.68737397 487.03094399 -11.609375 484.9765625 C-12.32867187 484.60789062 -13.04796875 484.23921875 -13.7890625 483.859375 C-15.64918033 482.90493252 -17.5046129 481.94137148 -19.359375 480.9765625 C-20.019375 480.6465625 -20.679375 480.3165625 -21.359375 479.9765625 C-21.359375 479.3165625 -21.359375 478.6565625 -21.359375 477.9765625 C-21.93171875 477.86183594 -22.5040625 477.74710937 -23.09375 477.62890625 C-25.57409156 476.91473894 -27.42306197 475.90348378 -29.609375 474.5390625 C-30.66898438 473.89130859 -30.66898438 473.89130859 -31.75 473.23046875 C-32.28109375 472.81667969 -32.8121875 472.40289062 -33.359375 471.9765625 C-33.359375 471.3165625 -33.359375 470.6565625 -33.359375 469.9765625 C-35.339375 469.3165625 -37.319375 468.6565625 -39.359375 467.9765625 C-39.359375 467.3165625 -39.359375 466.6565625 -39.359375 465.9765625 C-40.019375 465.9765625 -40.679375 465.9765625 -41.359375 465.9765625 C-41.359375 465.3165625 -41.359375 464.6565625 -41.359375 463.9765625 C-42.019375 463.9765625 -42.679375 463.9765625 -43.359375 463.9765625 C-43.359375 463.3165625 -43.359375 462.6565625 -43.359375 461.9765625 C-44.019375 461.9765625 -44.679375 461.9765625 -45.359375 461.9765625 C-45.359375 461.3165625 -45.359375 460.6565625 -45.359375 459.9765625 C-48.41201164 458.99535786 -50.30673836 458.99535786 -53.359375 459.9765625 C-53.359375 457.9765625 -53.359375 455.9765625 -53.359375 453.9765625 C-54.019375 453.9765625 -54.679375 453.9765625 -55.359375 453.9765625 C-55.359375 453.3165625 -55.359375 452.6565625 -55.359375 451.9765625 C-56.019375 451.9765625 -56.679375 451.9765625 -57.359375 451.9765625 C-57.359375 451.3165625 -57.359375 450.6565625 -57.359375 449.9765625 C-58.019375 449.9765625 -58.679375 449.9765625 -59.359375 449.9765625 C-59.359375 449.3165625 -59.359375 448.6565625 -59.359375 447.9765625 C-60.019375 447.9765625 -60.679375 447.9765625 -61.359375 447.9765625 C-61.359375 447.3165625 -61.359375 446.6565625 -61.359375 445.9765625 C-62.019375 445.9765625 -62.679375 445.9765625 -63.359375 445.9765625 C-63.359375 445.3165625 -63.359375 444.6565625 -63.359375 443.9765625 C-64.019375 443.9765625 -64.679375 443.9765625 -65.359375 443.9765625 C-65.359375 443.3165625 -65.359375 442.6565625 -65.359375 441.9765625 C-66.019375 441.9765625 -66.679375 441.9765625 -67.359375 441.9765625 C-69.234375 439.9296875 -69.234375 439.9296875 -71.359375 437.2265625 C-72.41125 435.90398437 -72.41125 435.90398437 -73.484375 434.5546875 C-75.05245183 432.39858186 -76.27263984 430.39907629 -77.359375 427.9765625 C-78.019375 427.9765625 -78.679375 427.9765625 -79.359375 427.9765625 C-80.019375 425.9965625 -80.679375 424.0165625 -81.359375 421.9765625 C-82.019375 421.9765625 -82.679375 421.9765625 -83.359375 421.9765625 C-85.359375 418.9765625 -85.359375 418.9765625 -85.359375 415.9765625 C-86.019375 415.9765625 -86.679375 415.9765625 -87.359375 415.9765625 C-89.359375 412.9765625 -89.359375 412.9765625 -89.359375 409.9765625 C-90.019375 409.9765625 -90.679375 409.9765625 -91.359375 409.9765625 C-91.359375 408.6565625 -91.359375 407.3365625 -91.359375 405.9765625 C-92.019375 405.9765625 -92.679375 405.9765625 -93.359375 405.9765625 C-93.359375 404.6565625 -93.359375 403.3365625 -93.359375 401.9765625 C-94.019375 401.9765625 -94.679375 401.9765625 -95.359375 401.9765625 C-96.349375 399.9965625 -97.339375 398.0165625 -98.359375 395.9765625 C-99.349375 395.9765625 -100.339375 395.9765625 -101.359375 395.9765625 C-101.2975 394.6153125 -101.2975 394.6153125 -101.234375 393.2265625 C-101.35840749 390.00171774 -101.89071398 388.73030191 -103.359375 385.9765625 C-103.359375 384.6565625 -103.359375 383.3365625 -103.359375 381.9765625 C-104.019375 381.9765625 -104.679375 381.9765625 -105.359375 381.9765625 C-105.9471875 380.3678125 -105.9471875 380.3678125 -106.546875 378.7265625 C-107.86801259 375.17013523 -109.34464615 371.70448976 -110.859375 368.2265625 C-113.00743229 363.13296558 -114.43628676 358.10470809 -115.67578125 352.7265625 C-116.44269221 349.64138927 -117.50753987 346.78083933 -118.66796875 343.828125 C-120.84790748 337.99032298 -121.65003204 332.17288161 -122.11328125 325.98046875 C-122.15016825 323.98055457 -122.15016825 323.98055457 -123.359375 322.9765625 C-124.09123647 319.34185554 -124.56288497 315.6708536 -125.07307434 311.99946594 C-125.33401349 310.15575833 -125.61305995 308.31463646 -125.89404297 306.47387695 C-127.92279769 291.32107938 -127.62486943 276.09669514 -127.55499268 260.84222412 C-127.54406973 257.82724393 -127.54452727 254.81230836 -127.54513073 251.79731178 C-127.54485909 248.88053107 -127.53938242 245.96377953 -127.53212929 243.04700851 C-127.52896011 241.66035557 -127.52697933 240.27369936 -127.52623558 238.887043 C-127.52406582 236.96195523 -127.51451971 235.03688004 -127.50463867 233.11181641 C-127.50082687 232.02027252 -127.49701508 230.92872864 -127.49308777 229.80410767 C-127.37620186 227.33239022 -127.00816649 225.34375102 -126.359375 222.9765625 C-126.10581763 219.53240825 -125.91872647 216.09354701 -125.75390625 212.64453125 C-125.46096985 207.1797522 -125.46096985 207.1797522 -124.359375 204.9765625 C-124.15518565 202.98004441 -123.99415204 200.97896429 -123.859375 198.9765625 C-123.47048611 193.19878472 -123.47048611 193.19878472 -122.359375 190.9765625 C-122.05145631 188.64578907 -121.85042226 186.31414354 -121.640625 183.97265625 C-121.359375 181.9765625 -121.359375 181.9765625 -120.359375 180.9765625 C-119.88790463 178.56215375 -119.45771306 176.15133982 -119.046875 173.7265625 C-117.48063707 164.95189158 -115.37817667 156.33501169 -111.734375 148.1640625 C-109.17281663 142.22590447 -107.7512817 137.40893572 -109.359375 130.9765625 C-108.369375 131.3065625 -107.379375 131.6365625 -106.359375 131.9765625 C-106.20082031 131.38230469 -106.04226562 130.78804687 -105.87890625 130.17578125 C-104.2268209 124.30677086 -102.08801627 118.91549557 -99.4453125 113.421875 C-98.48638227 111.26255728 -97.84184344 109.28168951 -97.359375 106.9765625 C-96.699375 106.9765625 -96.039375 106.9765625 -95.359375 106.9765625 C-95.42125 106.2546875 -95.483125 105.5328125 -95.546875 104.7890625 C-95.32189689 101.4143909 -94.16509005 99.79347798 -92.359375 96.9765625 C-91.66358046 94.78525716 -91.66358046 94.78525716 -91.359375 92.9765625 C-90.699375 92.9765625 -90.039375 92.9765625 -89.359375 92.9765625 C-89.359375 91.6565625 -89.359375 90.3365625 -89.359375 88.9765625 C-88.699375 88.9765625 -88.039375 88.9765625 -87.359375 88.9765625 C-87.24722656 88.42484375 -87.13507813 87.873125 -87.01953125 87.3046875 C-86.24576727 84.57591039 -85.09119806 82.24883307 -83.796875 79.7265625 C-83.34183594 78.83453125 -82.88679688 77.9425 -82.41796875 77.0234375 C-82.06863281 76.34796875 -81.71929687 75.6725 -81.359375 74.9765625 C-80.699375 74.9765625 -80.039375 74.9765625 -79.359375 74.9765625 C-79.359375 73.6565625 -79.359375 72.3365625 -79.359375 70.9765625 C-78.699375 70.9765625 -78.039375 70.9765625 -77.359375 70.9765625 C-77.2046875 70.1721875 -77.2046875 70.1721875 -77.046875 69.3515625 C-76.17844803 66.35154206 -74.80317204 63.738609 -73.359375 60.9765625 C-72.699375 60.9765625 -72.039375 60.9765625 -71.359375 60.9765625 C-71.17375 60.1103125 -71.17375 60.1103125 -70.984375 59.2265625 C-70.35294136 56.95340138 -69.41079947 55.07941145 -68.359375 52.9765625 C-68.359375 52.3165625 -68.359375 51.6565625 -68.359375 50.9765625 C-67.369375 50.9765625 -66.379375 50.9765625 -65.359375 50.9765625 C-64.699375 48.9965625 -64.039375 47.0165625 -63.359375 44.9765625 C-62.699375 44.9765625 -62.039375 44.9765625 -61.359375 44.9765625 C-60.369375 42.0065625 -60.369375 42.0065625 -59.359375 38.9765625 C-58.699375 38.9765625 -58.039375 38.9765625 -57.359375 38.9765625 C-57.359375 38.3165625 -57.359375 37.6565625 -57.359375 36.9765625 C-56.699375 36.9765625 -56.039375 36.9765625 -55.359375 36.9765625 C-55.215 36.3578125 -55.070625 35.7390625 -54.921875 35.1015625 C-54.359375 32.9765625 -54.359375 32.9765625 -53.359375 30.9765625 C-52.699375 30.9765625 -52.039375 30.9765625 -51.359375 30.9765625 C-51.359375 30.3165625 -51.359375 29.6565625 -51.359375 28.9765625 C-50.699375 28.9765625 -50.039375 28.9765625 -49.359375 28.9765625 C-49.359375 28.3165625 -49.359375 27.6565625 -49.359375 26.9765625 C-48.699375 26.9765625 -48.039375 26.9765625 -47.359375 26.9765625 C-47.0809375 25.955625 -47.0809375 25.955625 -46.796875 24.9140625 C-43.97704754 19.15180639 -38.5275927 14.66814657 -33.359375 10.9765625 C-32.699375 10.9765625 -32.039375 10.9765625 -31.359375 10.9765625 C-31.359375 10.3165625 -31.359375 9.6565625 -31.359375 8.9765625 C-28.54886951 6.69953259 -25.4367197 4.87031308 -22.359375 2.9765625 C-21.71355469 2.55375 -21.06773437 2.1309375 -20.40234375 1.6953125 C-14.42588696 -1.8276515 -6.46992015 -2.80648854 0 0 Z M-24.359375 14.9765625 C-24.359375 15.6365625 -24.359375 16.2965625 -24.359375 16.9765625 C-25.16181641 17.29173828 -25.16181641 17.29173828 -25.98046875 17.61328125 C-29.2824195 19.50553217 -31.77200528 22.10017629 -34.421875 24.7890625 C-34.95103516 25.31048828 -35.48019531 25.83191406 -36.02539062 26.36914062 C-39.01398234 29.37273155 -41.2685007 32.25945263 -43.359375 35.9765625 C-44.69270833 37.30989583 -46.02604167 38.64322917 -47.359375 39.9765625 C-47.359375 40.6365625 -47.359375 41.2965625 -47.359375 41.9765625 C-48.019375 41.9765625 -48.679375 41.9765625 -49.359375 41.9765625 C-49.648125 42.7809375 -49.936875 43.5853125 -50.234375 44.4140625 C-51.359375 46.9765625 -51.359375 46.9765625 -53.359375 47.9765625 C-53.359375 48.9665625 -53.359375 49.9565625 -53.359375 50.9765625 C-54.019375 50.9765625 -54.679375 50.9765625 -55.359375 50.9765625 C-55.83117187 51.82927734 -55.83117187 51.82927734 -56.3125 52.69921875 C-57.6580616 55.12690369 -59.00812741 57.55203825 -60.359375 59.9765625 C-60.72804687 60.64171875 -61.09671875 61.306875 -61.4765625 61.9921875 C-62.83911219 64.42153966 -64.17044942 66.74229478 -65.921875 68.9140625 C-68.63066239 72.80058354 -70.359375 77.23579944 -70.359375 81.9765625 C-71.349375 82.3065625 -72.339375 82.6365625 -73.359375 82.9765625 C-75.84577325 87.30770783 -77.63990002 91.6478916 -79.296875 96.3515625 C-80.90620318 100.91551662 -82.84990495 105.14089748 -85.06640625 109.4375 C-88.07471452 115.345054 -90.82025016 121.37869885 -93.109375 127.6015625 C-94.359375 130.9765625 -94.359375 130.9765625 -95.359375 131.9765625 C-95.60778838 133.59873177 -95.8325503 135.22453844 -96.046875 136.8515625 C-96.79418914 141.25618676 -97.9842091 144.41409842 -100.296875 148.2265625 C-103.7193466 153.98633178 -104.73355832 159.46103655 -105.81640625 165.984375 C-106.359375 168.9765625 -106.359375 168.9765625 -107.359375 169.9765625 C-107.56541585 171.30438128 -107.7256709 172.63952145 -107.859375 173.9765625 C-108.24826389 177.86545139 -108.24826389 177.86545139 -109.359375 178.9765625 C-109.56541585 180.30438128 -109.7256709 181.63952145 -109.859375 182.9765625 C-110.24826389 186.86545139 -110.24826389 186.86545139 -111.359375 187.9765625 C-111.58690857 189.6803533 -111.75410738 191.39229749 -111.89453125 193.10546875 C-111.98154297 194.13994141 -112.06855469 195.17441406 -112.15820312 196.24023438 C-112.24521484 197.32884766 -112.33222656 198.41746094 -112.421875 199.5390625 C-112.51275391 200.63154297 -112.60363281 201.72402344 -112.69726562 202.84960938 C-112.92200311 205.55828742 -113.14251589 208.26724416 -113.359375 210.9765625 C-114.019375 210.9765625 -114.679375 210.9765625 -115.359375 210.9765625 C-116.23739636 225.26335419 -116.54570981 239.5103612 -116.54467773 253.82324219 C-116.54688138 257.23645198 -116.56517441 260.64934618 -116.58398438 264.0625 C-116.61065962 274.708574 -116.45146102 285.10268052 -114.83300781 295.63720703 C-114.31193065 299.31106961 -114.09526124 302.89540042 -113.921875 306.6015625 C-113.55801226 312.69785929 -112.57475975 318.40062839 -111.1796875 324.33984375 C-110.58234352 326.98806875 -110.05793009 329.59745733 -109.6015625 332.26953125 C-109.47700684 332.99084229 -109.35245117 333.71215332 -109.22412109 334.45532227 C-108.98683912 335.8515377 -108.75756019 337.24914484 -108.53759766 338.64819336 C-108.04439817 341.49399037 -107.62687629 343.62129832 -105.87109375 345.953125 C-103.66303353 348.90861645 -103.2867735 352.17157553 -102.671875 355.7265625 C-102.54232422 356.42394531 -102.41277344 357.12132812 -102.27929688 357.83984375 C-101.96297567 359.55032139 -101.65984753 361.26322975 -101.359375 362.9765625 C-100.699375 362.9765625 -100.039375 362.9765625 -99.359375 362.9765625 C-99.359375 365.2865625 -99.359375 367.5965625 -99.359375 369.9765625 C-98.699375 369.9765625 -98.039375 369.9765625 -97.359375 369.9765625 C-97.08673828 370.811875 -97.08673828 370.811875 -96.80859375 371.6640625 C-94.26617548 379.38692191 -94.26617548 379.38692191 -91.359375 386.9765625 C-90.699375 387.3065625 -90.039375 387.6365625 -89.359375 387.9765625 C-88.37387075 389.91118315 -87.44788834 391.8761763 -86.546875 393.8515625 C-80.17850258 407.21684645 -70.85838352 421.82602709 -60.171875 432.1640625 C-57.64194393 434.69399357 -56.1055528 436.89996352 -54.359375 439.9765625 C-52.96351715 441.79132253 -52.96351715 441.79132253 -51.359375 442.9765625 C-50.369375 442.9765625 -49.379375 442.9765625 -48.359375 442.9765625 C-48.359375 443.6365625 -48.359375 444.2965625 -48.359375 444.9765625 C-47.699375 444.9765625 -47.039375 444.9765625 -46.359375 444.9765625 C-45.864375 446.4615625 -45.864375 446.4615625 -45.359375 447.9765625 C-41.44047733 452.08774254 -37.63907627 454.92334534 -32.359375 456.9765625 C-31.02604167 458.64322917 -29.69270833 460.30989583 -28.359375 461.9765625 C-25.74119044 463.30955224 -25.74119044 463.30955224 -23.359375 463.9765625 C-23.359375 464.6365625 -23.359375 465.2965625 -23.359375 465.9765625 C-21.379375 466.6365625 -19.399375 467.2965625 -17.359375 467.9765625 C-17.359375 468.6365625 -17.359375 469.2965625 -17.359375 469.9765625 C-12.54727599 472.26701264 -12.54727599 472.26701264 -7.359375 472.9765625 C-6.864375 474.4615625 -6.864375 474.4615625 -6.359375 475.9765625 C-0.49087759 479.72058764 5.6529328 482.27304743 12.48828125 483.484375 C15.64030345 484.20516411 18.41146323 485.55766324 21.3046875 486.9765625 C36.76680343 493.59579608 62.31655601 493.53998462 77.890625 487.4765625 C78.50164062 487.21875 79.11265625 486.9609375 79.7421875 486.6953125 C81.89622393 485.87979253 84.00796065 485.42659526 86.265625 484.9765625 C90.100487 484.1858693 93.18750832 482.86008069 96.640625 480.9765625 C98.29972504 480.29128205 99.96395064 479.61764387 101.640625 478.9765625 C101.640625 478.3165625 101.640625 477.6565625 101.640625 476.9765625 C102.40375 477.0178125 103.166875 477.0590625 103.953125 477.1015625 C106.86780916 477.19737074 106.86780916 477.19737074 109.640625 474.9765625 C109.640625 474.3165625 109.640625 473.6565625 109.640625 472.9765625 C110.50107422 472.78707031 110.50107422 472.78707031 111.37890625 472.59375 C113.68391337 471.96474978 115.6793016 471.14170591 117.828125 470.1015625 C118.52292969 469.77414062 119.21773437 469.44671875 119.93359375 469.109375 C121.97179485 468.00906786 121.97179485 468.00906786 122.640625 464.9765625 C123.630625 464.9765625 124.620625 464.9765625 125.640625 464.9765625 C125.640625 464.3165625 125.640625 463.6565625 125.640625 462.9765625 C126.630625 462.9765625 127.620625 462.9765625 128.640625 462.9765625 C128.640625 462.3165625 128.640625 461.6565625 128.640625 460.9765625 C129.300625 460.7703125 129.960625 460.5640625 130.640625 460.3515625 C134.71242686 458.48531998 138.32859498 456.00094723 141.640625 452.9765625 C141.640625 452.3165625 141.640625 451.6565625 141.640625 450.9765625 C143.290625 450.3165625 144.940625 449.6565625 146.640625 448.9765625 C146.640625 448.3165625 146.640625 447.6565625 146.640625 446.9765625 C147.19234375 446.7496875 147.7440625 446.5228125 148.3125 446.2890625 C151.32754917 444.58930324 153.45292869 442.42851434 155.890625 439.9765625 C156.78265625 439.0896875 157.6746875 438.2028125 158.59375 437.2890625 C160.86155573 435.24167147 160.86155573 435.24167147 160.640625 432.9765625 C161.300625 432.9765625 161.960625 432.9765625 162.640625 432.9765625 C164.68518559 430.80391595 164.68518559 430.80391595 166.765625 428.1015625 C167.49007813 427.19664062 168.21453125 426.29171875 168.9609375 425.359375 C170.83267734 423.19000439 170.83267734 423.19000439 170.640625 420.9765625 C171.630625 420.6465625 172.620625 420.3165625 173.640625 419.9765625 C174.70702144 418.35157745 175.68772843 416.67060084 176.640625 414.9765625 C178.22436858 412.66186034 179.82312752 410.35868786 181.43359375 408.0625 C182.89104729 405.94545916 182.89104729 405.94545916 182.640625 402.9765625 C183.300625 402.9765625 183.960625 402.9765625 184.640625 402.9765625 C185.62546608 401.22974957 186.60328687 399.4789774 187.578125 397.7265625 C188.39603516 396.26476562 188.39603516 396.26476562 189.23046875 394.7734375 C190.40673335 392.44045841 191.16164191 390.52305488 191.640625 387.9765625 C192.300625 387.9765625 192.960625 387.9765625 193.640625 387.9765625 C194.74760316 385.16514126 195.85125623 382.35248598 196.953125 379.5390625 C197.4162207 378.3644043 197.4162207 378.3644043 197.88867188 377.16601562 C201.21364032 368.66109634 203.97202865 359.99923424 206.703125 351.2890625 C207.21437713 349.66000974 207.72608545 348.03110006 208.23828125 346.40234375 C208.47708008 345.64147461 208.71587891 344.88060547 208.96191406 344.09667969 C209.55395641 342.24729274 210.1821505 340.40955683 210.81640625 338.57421875 C211.66730332 335.89248155 211.80501658 333.77121928 211.640625 330.9765625 C212.300625 330.9765625 212.960625 330.9765625 213.640625 330.9765625 C213.70121094 330.04972656 213.76179688 329.12289063 213.82421875 328.16796875 C213.90800781 326.97042969 213.99179687 325.77289063 214.078125 324.5390625 C214.15933594 323.34410156 214.24054688 322.14914062 214.32421875 320.91796875 C214.640625 317.9765625 214.640625 317.9765625 215.640625 316.9765625 C215.85963521 314.39862977 216.01970995 311.84086017 216.140625 309.2578125 C216.18123047 308.48473755 216.22183594 307.7116626 216.26367188 306.91516113 C216.39378742 304.43583437 216.51791012 301.95626595 216.640625 299.4765625 C216.80199045 296.21584576 216.96938364 292.9555238 217.140625 289.6953125 C217.17607422 288.93802856 217.21152344 288.18074463 217.24804688 287.4005127 C217.52782319 282.08936431 217.52782319 282.08936431 218.640625 280.9765625 C218.73910019 279.46010132 218.7686113 277.93908812 218.77001953 276.41943359 C218.77317169 275.44686615 218.77632385 274.47429871 218.77957153 273.47225952 C218.7775473 272.40891388 218.77552307 271.34556824 218.7734375 270.25 C218.77439423 269.15499176 218.77535095 268.05998352 218.77633667 266.93179321 C218.77701948 264.59971052 218.77515823 262.26762595 218.77099609 259.93554688 C218.76572055 256.41531918 218.77090009 252.89522331 218.77734375 249.375 C218.78113434 237.86518823 218.6814947 226.44668496 217.640625 214.9765625 C217.53113525 213.65930176 217.53113525 213.65930176 217.41943359 212.31542969 C217.22568905 210.0948541 217.00631934 207.87999503 216.765625 205.6640625 C216.68320557 204.90480469 216.60078613 204.14554688 216.51586914 203.36328125 C215.93255168 198.43068548 214.91787438 193.90807562 213.29296875 189.203125 C212.56707018 186.72550711 212.33102067 184.42384689 212.140625 181.8515625 C211.84437069 178.01210665 210.97071528 175.01845068 209.4609375 171.44921875 C208.08950431 167.31532728 207.48034751 162.99597001 206.81884766 158.69873047 C206.1111619 154.43505294 204.88538168 151.61442195 202.640625 147.9765625 C201.70580131 145.3072423 200.99545891 142.58298408 200.265625 139.8515625 C198.58456234 133.85032208 196.6270061 128.28813364 193.8984375 122.66796875 C191.97164306 118.54510736 190.43067607 114.2852575 188.8515625 110.01953125 C187.31160175 106.1497589 185.44039189 102.50163522 183.5078125 98.81640625 C181.63222071 95.22029129 180.15077099 92.0577304 179.640625 87.9765625 C178.980625 87.9765625 178.320625 87.9765625 177.640625 87.9765625 C176.00520414 84.76685801 174.50030503 81.50848678 173.015625 78.2265625 C172.56960938 77.24171875 172.12359375 76.256875 171.6640625 75.2421875 C171.32632812 74.49453125 170.98859375 73.746875 170.640625 72.9765625 C169.980625 72.9765625 169.320625 72.9765625 168.640625 72.9765625 C168.5375 72.2546875 168.434375 71.5328125 168.328125 70.7890625 C167.57268553 67.69862829 166.48531185 65.55912409 164.640625 62.9765625 C163.980625 62.9765625 163.320625 62.9765625 162.640625 62.9765625 C162.558125 62.3165625 162.475625 61.6565625 162.390625 60.9765625 C161.39302709 56.98617087 159.56895817 53.59106607 157.640625 49.9765625 C156.650625 49.9765625 155.660625 49.9765625 154.640625 49.9765625 C154.49947266 49.14898437 154.49947266 49.14898437 154.35546875 48.3046875 C153.4490106 45.35250685 151.97718982 43.24934906 150.203125 40.7265625 C149.58566406 39.83453125 148.96820313 38.9425 148.33203125 38.0234375 C147.49478516 37.01023437 147.49478516 37.01023437 146.640625 35.9765625 C145.980625 35.9765625 145.320625 35.9765625 144.640625 35.9765625 C144.5375 35.3784375 144.434375 34.7803125 144.328125 34.1640625 C143.54238467 31.66397964 142.67143647 30.60121168 140.640625 28.9765625 C139.980625 28.9765625 139.320625 28.9765625 138.640625 28.9765625 C138.27904297 28.12771484 138.27904297 28.12771484 137.91015625 27.26171875 C136.3856598 24.51762515 134.55403548 22.62500888 132.328125 20.4140625 C131.56886719 19.64964844 130.80960938 18.88523437 130.02734375 18.09765625 C127.68131161 16.01272097 125.36020628 14.52552205 122.640625 12.9765625 C121.691875 12.2546875 120.743125 11.5328125 119.765625 10.7890625 C116.05146399 8.63484911 113.8692265 8.57763783 109.640625 8.9765625 C106.52277387 9.62300911 106.52277387 9.62300911 105.640625 11.9765625 C105.33969636 17.86067777 106.09387902 22.86400434 107.578125 28.5390625 C108.62846967 32.66250043 109.656525 36.71726728 110.20703125 40.94140625 C110.31263021 43.84856771 110.31263021 43.84856771 111.640625 44.9765625 C112.00823231 47.30474214 112.34304081 49.638401 112.640625 51.9765625 C113.300625 51.9765625 113.960625 51.9765625 114.640625 51.9765625 C114.57875 53.1315625 114.516875 54.2865625 114.453125 55.4765625 C114.44617387 59.93223816 115.14759263 64.04772883 116.015625 68.4140625 C120.56732973 91.56768061 120.74973135 114.76657313 118.328125 138.2265625 C118.15180542 139.96558838 118.15180542 139.96558838 117.97192383 141.73974609 C117.25400662 147.96842335 116.09844939 153.21184712 113.640625 158.9765625 C113.05686357 160.70558469 112.47348247 162.43473538 111.890625 164.1640625 C109.86290089 169.83535336 107.04150638 174.92419826 104.03125 180.12890625 C102.34808356 183.04743726 102.34808356 183.04743726 102.640625 186.9765625 C101.980625 186.9765625 101.320625 186.9765625 100.640625 186.9765625 C99.980625 188.0696875 99.320625 189.1628125 98.640625 190.2890625 C98.269375 190.90394531 97.898125 191.51882812 97.515625 192.15234375 C96.42438501 194.09018176 96.42438501 194.09018176 96.640625 196.9765625 C95.980625 196.9765625 95.320625 196.9765625 94.640625 196.9765625 C93.37401738 198.62077381 92.17756954 200.319292 91.015625 202.0390625 C87.85871683 206.51278665 84.68364539 210.04589115 80.40234375 213.44140625 C78.55038378 214.91425565 78.55038378 214.91425565 77.32421875 216.99609375 C73.21417476 221.83087868 64.60187108 223.55977127 58.40380859 224.21191406 C37.95097625 225.26760135 37.95097625 225.26760135 31.640625 220.9765625 C31.310625 220.3165625 30.980625 219.6565625 30.640625 218.9765625 C29.59777344 218.56277344 28.55492187 218.14898437 27.48046875 217.72265625 C23.19229723 215.9717349 20.39103465 213.33756914 17.203125 210.0390625 C16.64399414 209.46929687 16.08486328 208.89953125 15.50878906 208.3125 C9.50801206 202.03817344 2.86003594 194.83333667 1.640625 185.9765625 C0.980625 185.9765625 0.320625 185.9765625 -0.359375 185.9765625 C-0.6275 185.2959375 -0.895625 184.6153125 -1.171875 183.9140625 C-2.0115643 181.83693633 -2.89060717 179.77551586 -3.796875 177.7265625 C-5.3342486 174.19370903 -6.49117053 170.57784385 -7.61328125 166.89453125 C-8.28774234 164.77976273 -8.28774234 164.77976273 -10.359375 162.9765625 C-10.94755555 160.99532274 -11.45945579 158.99087028 -11.921875 156.9765625 C-12.82014273 152.86108335 -12.82014273 152.86108335 -14.359375 148.9765625 C-17.12488156 136.80115049 -16.66395642 124.24102144 -16.62011719 111.83789062 C-16.60944033 108.24852438 -16.62003551 104.65966313 -16.6328125 101.0703125 C-16.64031217 88.30367574 -16.51749797 75.5929734 -14.359375 62.9765625 C-14.029375 62.6465625 -13.699375 62.3165625 -13.359375 61.9765625 C-13.15486869 59.81788479 -13.04058201 57.66168362 -12.93359375 55.49609375 C-12.359375 52.9765625 -12.359375 52.9765625 -10.48828125 50.47265625 C-7.11427205 45.71696039 -6.61573129 39.84696746 -5.609375 34.2265625 C-5.27873047 32.53273438 -5.27873047 32.53273438 -4.94140625 30.8046875 C-3.07509939 20.95032667 -3.07509939 20.95032667 -3.359375 10.9765625 C-5.66175235 8.67418515 -6.22101765 8.61106353 -9.359375 8.4765625 C-15.22382701 8.57191944 -19.86451919 11.35440312 -24.359375 14.9765625 Z M68.640625 204.9765625 C70.125625 205.9665625 70.125625 205.9665625 71.640625 206.9765625 C71.970625 206.3165625 72.300625 205.6565625 72.640625 204.9765625 C71.320625 204.9765625 70.000625 204.9765625 68.640625 204.9765625 Z M208.640625 379.9765625 C207.9591427 381.86835453 207.9591427 381.86835453 207.640625 383.9765625 C208.300625 384.6365625 208.960625 385.2965625 209.640625 385.9765625 C209.640625 383.9965625 209.640625 382.0165625 209.640625 379.9765625 C209.310625 379.9765625 208.980625 379.9765625 208.640625 379.9765625 Z " fill="#050505" transform="translate(205.359375,5.0234375)"/>
<path d="M0 0 C0.70640625 -0.00322266 1.4128125 -0.00644531 2.140625 -0.00976562 C5.87158222 0.02909851 7.57455891 0.19553927 10.75 2.3125 C12.15417914 2.80777249 13.57273701 3.26331345 15 3.6875 C19.32341136 5.06731214 22.89377472 6.93312695 26.75 9.3125 C26.75 9.9725 26.75 10.6325 26.75 11.3125 C27.7090625 11.4671875 27.7090625 11.4671875 28.6875 11.625 C29.368125 11.851875 30.04875 12.07875 30.75 12.3125 C31.245 13.7975 31.245 13.7975 31.75 15.3125 C33.07620284 15.67315902 34.41107089 16.0024069 35.75 16.3125 C41.42008294 20.34585797 46.63080306 25.71296667 50.75 31.3125 C50.75 31.9725 50.75 32.6325 50.75 33.3125 C51.41 33.3125 52.07 33.3125 52.75 33.3125 C54.51829498 37.37957846 56.24800681 41.46202186 57.9375 45.5625 C58.28167969 46.39265625 58.62585938 47.2228125 58.98046875 48.078125 C59.75 50.3125 59.75 50.3125 59.75 53.3125 C60.41 53.3125 61.07 53.3125 61.75 53.3125 C65.27669128 62.72134797 67.59852029 71.16335951 67.75 81.3125 C67.76369629 81.97491699 67.77739258 82.63733398 67.79150391 83.31982422 C68.22189085 105.76735534 68.22189085 105.76735534 62.1875 113.25 C60.75 114.3125 60.75 114.3125 58.75 114.3125 C58.75 114.9725 58.75 115.6325 58.75 116.3125 C52.7894577 119.78045188 47.90527507 120.72061954 41.125 120.75 C40.40900635 120.75966797 39.6930127 120.76933594 38.95532227 120.77929688 C33.84484222 120.69923406 30.34754409 119.52306976 25.75 117.3125 C24.25793125 116.78930706 22.75876412 116.28539622 21.25 115.8125 C17.29808867 114.53134864 13.54210535 113.00684494 9.75 111.3125 C9.75 110.6525 9.75 109.9925 9.75 109.3125 C9.15445313 109.05597656 8.55890625 108.79945313 7.9453125 108.53515625 C5.55303629 107.20280313 4.32271801 105.87881395 2.625 103.75 C0.54096366 101.10224334 0.54096366 101.10224334 -2.25 99.3125 C-3.22179059 97.670509 -4.18675442 96.02382904 -5.10546875 94.3515625 C-6.66708983 91.56942528 -8.38308034 88.89421195 -10.1015625 86.20703125 C-12.43837675 82.35208257 -13.50436406 79.89105307 -13.25 75.3125 C-14.24 74.9825 -15.23 74.6525 -16.25 74.3125 C-20.66054249 67.5084314 -22.23735579 59.72013591 -23.625 51.8515625 C-24.11925511 49.05284295 -24.73815318 46.37382153 -25.4375 43.625 C-26.45483098 38.51248076 -26.50077622 33.38313467 -26.5625 28.1875 C-26.58014404 27.33969971 -26.59778809 26.49189941 -26.6159668 25.6184082 C-26.6088985 19.03525153 -25.69888011 13.32036361 -21.453125 8.10546875 C-20.80859375 7.57566406 -20.1640625 7.04585938 -19.5 6.5 C-18.54867187 5.68595703 -18.54867187 5.68595703 -17.578125 4.85546875 C-11.76918504 1.00558404 -6.7902187 -0.15835398 0 0 Z " fill="#030303" transform="translate(162.25,347.6875)"/>
<path d="M0 0 C3.04221065 -0.08132642 6.0822238 -0.14065374 9.125 -0.1875 C9.9809375 -0.21263672 10.836875 -0.23777344 11.71875 -0.26367188 C19.10833623 -0.34893633 23.70155009 1.51950166 29.25 6.5 C29.91515625 7.0878125 30.5803125 7.675625 31.265625 8.28125 C36.42446001 13.39360902 36.1106198 20.05382236 36.2409668 26.93530273 C36.31749837 44.42793832 32.85027266 63.22459101 23 78 C22.773125 79.010625 22.54625 80.02125 22.3125 81.0625 C20.91611943 86.35285239 17.51322672 90.8819017 14 95 C13.34 95 12.68 95 12 95 C11.74347656 95.7425 11.48695313 96.485 11.22265625 97.25 C8.07943756 104.3197315 1.53435718 108.68125874 -5.21484375 111.9921875 C-7.17173474 112.87762026 -7.17173474 112.87762026 -8 115 C-8.99 115 -9.98 115 -11 115 C-11 115.66 -11 116.32 -11 117 C-21.06938335 120.31697334 -30.54138951 120.31375831 -41 120 C-41 119.34 -41 118.68 -41 118 C-42.65 118 -44.3 118 -46 118 C-46 117.34 -46 116.68 -46 116 C-46.5775 115.9175 -47.155 115.835 -47.75 115.75 C-51.38537717 114.53820761 -53.16199243 112.45809447 -55.05712891 109.16064453 C-57.997168 103.10050784 -58.56556614 98.05540191 -58.375 91.375 C-58.35920898 90.41223145 -58.34341797 89.44946289 -58.32714844 88.45751953 C-57.98079162 73.83979842 -56.67098434 59.24138965 -48 47 C-45.59258545 42.43241888 -43.2363833 37.80704007 -41.15478516 33.08105469 C-38.71460815 27.75399811 -35.58775548 24.03408951 -31.375 20 C-30.78976562 19.41605469 -30.20453125 18.83210938 -29.6015625 18.23046875 C-25.28192696 14 -25.28192696 14 -23 14 C-23 13.34 -23 12.68 -23 12 C-22.21753906 11.59007812 -21.43507813 11.18015625 -20.62890625 10.7578125 C-19.61699219 10.21898437 -18.60507812 9.68015625 -17.5625 9.125 C-16.55316406 8.59132813 -15.54382813 8.05765625 -14.50390625 7.5078125 C-11.89859558 6.24345886 -11.89859558 6.24345886 -11 4 C-8.71484375 3.5859375 -8.71484375 3.5859375 -5.9375 3.375 C-5.01839844 3.30023438 -4.09929687 3.22546875 -3.15234375 3.1484375 C-2.44207031 3.09945313 -1.73179687 3.05046875 -1 3 C-0.67 2.01 -0.34 1.02 0 0 Z " fill="#030303" transform="translate(340,348)"/>
<path d="M0 0 C0.66 0 1.32 0 2 0 C1.67 1.32 1.34 2.64 1 4 C0.34 4 -0.32 4 -1 4 C-1.3403125 4.82757813 -1.3403125 4.82757813 -1.6875 5.671875 C-3.38725926 8.68692417 -5.54804816 10.81230369 -8 13.25 C-9.3303125 14.58804687 -9.3303125 14.58804687 -10.6875 15.953125 C-13 18 -13 18 -15 18 C-15 18.66 -15 19.32 -15 20 C-17.475 20.99 -17.475 20.99 -20 22 C-20 22.66 -20 23.32 -20 24 C-21.73548169 25.44526736 -23.53975963 26.8087222 -25.375 28.125 C-26.37273437 28.84945313 -27.37046875 29.57390625 -28.3984375 30.3203125 C-31 32 -31 32 -33 32 C-33 32.66 -33 33.32 -33 34 C-33.99 34 -34.98 34 -36 34 C-36 34.66 -36 35.32 -36 36 C-36.99 36 -37.98 36 -39 36 C-39.33 36.99 -39.66 37.98 -40 39 C-41.9609375 40.38671875 -41.9609375 40.38671875 -44.375 41.6875 C-45.16648437 42.12449219 -45.95796875 42.56148438 -46.7734375 43.01171875 C-49 44 -49 44 -52 44 C-52 44.66 -52 45.32 -52 46 C-55.22791555 48.1519437 -56.28400809 48.20086443 -60 48 C-60 48.66 -60 49.32 -60 50 C-60.639375 50.2475 -61.27875 50.495 -61.9375 50.75 C-63.65689122 51.45179233 -65.37001954 52.17164404 -67.0546875 52.953125 C-71.30074058 54.92188318 -75.33768146 56.48476255 -79.90625 57.5 C-82.29444531 58.0703153 -84.599868 58.81214899 -86.9375 59.5625 C-96.19744351 62.34469851 -105.38851796 62.20722908 -115 62 C-116.29679687 61.98324219 -117.59359375 61.96648437 -118.9296875 61.94921875 C-130.13921096 61.64115196 -139.92117711 59.06170972 -150 54 C-150.99 53.7525 -151.98 53.505 -153 53.25 C-158.68041615 51.73356505 -163.81583484 48.7070025 -169 46 C-169 45.34 -169 44.68 -169 44 C-170.36125 43.814375 -170.36125 43.814375 -171.75 43.625 C-174.58970323 43.07890323 -176.52590591 42.42736197 -179 41 C-179 40.34 -179 39.68 -179 39 C-180.98 38.34 -182.96 37.68 -185 37 C-185 36.34 -185 35.68 -185 35 C-185.7425 34.773125 -186.485 34.54625 -187.25 34.3125 C-190 33 -190 33 -191.9375 30.5625 C-194.34495573 27.57141864 -196.570945 26.64308886 -200 25 C-202.375 22.8125 -202.375 22.8125 -204 21 C-203.505 19.515 -203.505 19.515 -203 18 C-200.05043472 19.36944102 -197.47531189 20.87830409 -195 23 C-195 23.66 -195 24.32 -195 25 C-194.29875 25.103125 -193.5975 25.20625 -192.875 25.3125 C-189.595619 26.0966998 -186.99911115 27.46984125 -184 29 C-182.989375 29.33 -181.97875 29.66 -180.9375 30 C-178 31 -178 31 -175.9609375 32.51953125 C-171.62316625 34.68841687 -167.47675903 34.56903776 -162.6875 34.6875 C-161.75615234 34.72166016 -160.82480469 34.75582031 -159.86523438 34.79101562 C-157.57694328 34.87315941 -155.28901896 34.94241662 -153 35 C-153 35.66 -153 36.32 -153 37 C-156.96 37 -160.92 37 -165 37 C-162.74715887 40.37926169 -161.5807806 40.87462998 -157.9375 42.4375 C-156.94621094 42.86804688 -155.95492187 43.29859375 -154.93359375 43.7421875 C-153.48146484 44.36480469 -153.48146484 44.36480469 -152 45 C-150.49948647 45.68637847 -148.99944321 46.37378648 -147.5 47.0625 C-127.09161301 56.07589892 -101.35313529 57.95092552 -80.20361328 49.94091797 C-75.02146378 47.89526832 -69.88549835 45.74107351 -64.796875 43.47265625 C-63.94448242 43.09375244 -63.09208984 42.71484863 -62.21386719 42.32446289 C-59.54285424 40.9161445 -59.54285424 40.9161445 -57 37 C-61.29 37 -65.58 37 -70 37 C-70 36.34 -70 35.68 -70 35 C-69.37432129 34.98018066 -68.74864258 34.96036133 -68.10400391 34.93994141 C-65.27723481 34.84485774 -62.45122185 34.73511254 -59.625 34.625 C-58.64015625 34.5940625 -57.6553125 34.563125 -56.640625 34.53125 C-55.69960938 34.49257813 -54.75859375 34.45390625 -53.7890625 34.4140625 C-52.91975098 34.3826416 -52.05043945 34.3512207 -51.15478516 34.31884766 C-48.79038206 34.18770567 -48.79038206 34.18770567 -47 32 C-44.8359375 31.5859375 -44.8359375 31.5859375 -42.375 31.375 C-41.55773437 31.30023438 -40.74046875 31.22546875 -39.8984375 31.1484375 C-39.27195312 31.09945313 -38.64546875 31.05046875 -38 31 C-38 30.34 -38 29.68 -38 29 C-37.01 29 -36.02 29 -35 29 C-34.67 28.01 -34.34 27.02 -34 26 C-32.1796875 24.859375 -32.1796875 24.859375 -29.875 23.75 C-23.13754684 20.1881617 -18.78429731 15.5727269 -15 9 C-14.34 9 -13.68 9 -13 9 C-13 8.34 -13 7.68 -13 7 C-12.01 7 -11.02 7 -10 7 C-9.67 6.01 -9.34 5.02 -9 4 C-7.1875 3.0859375 -7.1875 3.0859375 -5 2.375 C-2.25730729 1.58884867 -2.25730729 1.58884867 0 0 Z " fill="#EBEAEA" transform="translate(367,434)"/>
<path d="M0 0 C1.17120723 3.42715673 0.77784169 5.33945254 -0.3125 8.75 C-4.6606407 25.50430361 -4.19526196 43.24378267 -4.25 60.4375 C-4.25526703 61.28018433 -4.26053406 62.12286865 -4.26596069 62.99108887 C-4.31253692 72.63248612 -4.00741455 82.04757638 -2.61090088 91.59971619 C-2.1315022 94.98930532 -1.81195808 97.74120726 -3 101 C-8.4663191 90.06736179 -6.30255346 73.69070115 -6.26074219 61.86132812 C-6.25006533 58.27196188 -6.26066051 54.68310063 -6.2734375 51.09375 C-6.28093717 38.32711324 -6.15812297 25.6164109 -4 13 C-3.67 12.67 -3.34 12.34 -3 12 C-2.71710819 9.74584622 -2.5522881 7.49159344 -2.37890625 5.2265625 C-2 3 -2 3 0 0 Z " fill="#6B6B6B" transform="translate(194,55)"/>
<path d="M0 0 C0.66 0 1.32 0 2 0 C2.07067978 7.65195459 2.12339139 15.30387389 2.15543652 22.95608425 C2.17084555 26.51242845 2.19160581 30.06854353 2.22631836 33.62475586 C2.3973717 51.614155 1.73137861 69.17099615 -1 87 C-1.33 87 -1.66 87 -2 87 C-1.86188078 82.68721615 -1.71321891 78.37486047 -1.5625 74.0625 C-1.50352539 72.21495117 -1.50352539 72.21495117 -1.44335938 70.33007812 C-1.38051758 68.5753418 -1.38051758 68.5753418 -1.31640625 66.78515625 C-1.27974854 65.70113525 -1.24309082 64.61711426 -1.20532227 63.50024414 C-1 61 -1 61 0 60 C0.09386381 58.1281906 0.11743804 56.2528194 0.11352539 54.37866211 C0.11344986 53.17749252 0.11337433 51.97632294 0.11329651 50.73875427 C0.10813522 49.4314888 0.10297394 48.12422333 0.09765625 46.77734375 C0.09579198 45.43355868 0.09436812 44.08977293 0.09336853 42.74598694 C0.08954402 39.20317723 0.07971432 35.6604083 0.06866455 32.11761475 C0.05844899 28.50484773 0.0538706 24.89207416 0.04882812 21.27929688 C0.03809198 14.1861812 0.02101636 7.09309326 0 0 Z " fill="#575757" transform="translate(423,226)"/>
<path d="M0 0 C0.33 0.66 0.66 1.32 1 2 C0.72285156 2.52207031 0.44570312 3.04414063 0.16015625 3.58203125 C-1.54528863 7.13647698 -1.95198642 10.81445356 -2.5625 14.6875 C-3.87426614 22.87426614 -3.87426614 22.87426614 -5 24 C-5.23192865 25.51469448 -5.41215238 27.03754562 -5.5625 28.5625 C-5.68818359 29.80193359 -5.68818359 29.80193359 -5.81640625 31.06640625 C-5.87699219 31.70449219 -5.93757813 32.34257812 -6 33 C-6.66 33 -7.32 33 -8 33 C-7.97679688 33.59167969 -7.95359375 34.18335938 -7.9296875 34.79296875 C-7.82588536 39.33801959 -7.86291643 42.85940059 -10 47 C-10.33 47 -10.66 47 -11 47 C-11.09765625 40.84765625 -11.09765625 40.84765625 -11 39 C-10.505 38.505 -10.505 38.505 -10 38 C-9.79395915 36.67218122 -9.6337041 35.33704105 -9.5 34 C-9.11111111 30.11111111 -9.11111111 30.11111111 -8 29 C-7.87625 27.845 -7.7525 26.69 -7.625 25.5 C-7.17848388 21.47415309 -6.04793322 17.96802501 -4.6875 14.16796875 C-3.85949998 11.77470205 -3.85949998 11.77470205 -3.5 8.25 C-2.97252144 4.82138937 -1.96660007 2.82164358 0 0 Z " fill="#828181" transform="translate(105,154)"/>
<path d="M0 0 C0.33 0 0.66 0 1 0 C1.47993156 2.54152435 1.95896727 5.08321222 2.4375 7.625 C2.57220703 8.33785156 2.70691406 9.05070312 2.84570312 9.78515625 C3.61018271 13.84995013 4.33669637 17.91714075 5 22 C2.64551835 19.44931155 2.01672076 18.28982642 1.8125 14.75 C1.874375 13.8425 1.93625 12.935 2 12 C1.34 12 0.68 12 0 12 C0 13.65 0 15.3 0 17 C-3.0916909 14.47043472 -3.90931332 11.77545388 -5 8 C-4.01 7.67 -3.02 7.34 -2 7 C-2 7.99 -2 8.98 -2 10 C-1.34 10 -0.68 10 0 10 C0 6.7 0 3.4 0 0 Z " fill="#C0B8B9" transform="translate(136,386)"/>
<path d="M0 0 C5.10807896 4.48891787 8.7898192 10.023698 12 16 C12 16.99 12 17.98 12 19 C11.34 19 10.68 19 10 19 C7.1605948 15.32547562 6 13.73113419 6 9 C5.34 9 4.68 9 4 9 C0.88002198 5.69649386 0 4.67590167 0 0 Z " fill="#EEEBEB" transform="translate(209,372)"/>
<path d="M0 0 C3.3 0 6.6 0 10 0 C10 0.66 10 1.32 10 2 C11.32 2 12.64 2 14 2 C14 2.99 14 3.98 14 5 C14.99 5.33 15.98 5.66 17 6 C16.67 6.66 16.34 7.32 16 8 C15.49210938 7.73445313 14.98421875 7.46890625 14.4609375 7.1953125 C11.2047999 5.52456025 8.10615648 4.03538549 4.625 2.875 C2 2 2 2 0 0 Z " fill="#CFCACB" transform="translate(170,348)"/>
<path d="M0 0 C0.33 0 0.66 0 1 0 C2.29235715 4.91502758 2.11135517 9.77290102 2.0625 14.8125 C2.05798828 15.69615234 2.05347656 16.57980469 2.04882812 17.49023438 C2.03709866 19.66018559 2.01916495 21.83010172 2 24 C-1.83892442 18.24161338 -1.53743671 9.3938463 -0.5625 2.625 C-0.376875 1.75875 -0.19125 0.8925 0 0 Z " fill="#DFD5D5" transform="translate(134,362)"/>
<path d="M0 0 C0.66 0.33 1.32 0.66 2 1 C0.60919892 2.58775549 -0.78788404 4.17000939 -2.1875 5.75 C-2.96480469 6.63171875 -3.74210937 7.5134375 -4.54296875 8.421875 C-6.88455246 10.87886268 -9.30158265 12.94862766 -12 15 C-12 12 -12 12 -9.375 9.08203125 C-8.25750594 7.98449244 -7.13214357 6.89492105 -6 5.8125 C-5.42765625 5.25369141 -4.8553125 4.69488281 -4.265625 4.11914062 C-2.85037212 2.73926907 -1.42602845 1.36873266 0 0 Z " fill="#F9F7F7" transform="translate(307,248)"/>
<path d="M0 0 C0.33 0 0.66 0 1 0 C1.22384382 1.72722728 1.42839969 3.45696007 1.625 5.1875 C1.74101562 6.15042969 1.85703125 7.11335938 1.9765625 8.10546875 C2.00224857 11.27769843 1.4615906 13.20110372 0 16 C-0.66 16.33 -1.32 16.66 -2 17 C-2.66 17.99 -3.32 18.98 -4 20 C-3.21085905 13.21338787 -1.58725189 6.63850633 0 0 Z " fill="#BDB9B9" transform="translate(374,392)"/>
<path d="M0 0 C2.75927344 2.75927344 2.51783243 5.21154052 3 9 C3.33 9.33 3.66 9.66 4 10 C4.23363881 11.84891946 4.41303635 13.70488031 4.5625 15.5625 C4.64628906 16.57441406 4.73007813 17.58632813 4.81640625 18.62890625 C4.90728516 19.80259766 4.90728516 19.80259766 5 21 C4.34 20.67 3.68 20.34 3 20 C2.35561302 17.38402535 1.82930783 14.83685637 1.375 12.1875 C1.17390625 11.09985352 1.17390625 11.09985352 0.96875 9.99023438 C0.35857935 6.58759906 0 3.4678304 0 0 Z " fill="#767676" transform="translate(95,329)"/>
<path d="M0 0 C0.95827504 3.04498611 0.99431517 5.02273931 0.22265625 8.109375 C-0.05288086 9.24052734 -0.05288086 9.24052734 -0.33398438 10.39453125 C-0.63272461 11.56048828 -0.63272461 11.56048828 -0.9375 12.75 C-1.23043945 13.93916016 -1.23043945 13.93916016 -1.52929688 15.15234375 C-2.01124079 17.10362885 -2.50452088 19.05210783 -3 21 C-3.33 21 -3.66 21 -4 21 C-4.09765625 14.84765625 -4.09765625 14.84765625 -4 13 C-3.67 12.67 -3.34 12.34 -3 12 C-2.71710819 9.74584622 -2.5522881 7.49159344 -2.37890625 5.2265625 C-2 3 -2 3 0 0 Z " fill="#828181" transform="translate(194,55)"/>
<path d="M0 0 C0.33 0 0.66 0 1 0 C1.09765625 6.15234375 1.09765625 6.15234375 1 8 C0.67 8.33 0.34 8.66 0 9 C-0.23481693 11.18292774 -0.41363323 13.37203174 -0.5625 15.5625 C-0.64628906 16.76003906 -0.73007812 17.95757812 -0.81640625 19.19140625 C-0.87699219 20.11824219 -0.93757813 21.04507812 -1 22 C-1.66 22 -2.32 22 -3 22 C-2.88482579 19.64499052 -2.75812022 17.29150927 -2.625 14.9375 C-2.55539062 13.62652344 -2.48578125 12.31554687 -2.4140625 10.96484375 C-2.00194564 7.01863043 -1.20243433 3.75882927 0 0 Z " fill="#747474" transform="translate(420,314)"/>
<path d="M0 0 C0.33 0 0.66 0 1 0 C1.39590347 7.39019811 0.12767046 12.8084943 -4 19 C-3.855625 18.360625 -3.71125 17.72125 -3.5625 17.0625 C-2.82763202 13.06155212 -2.41418889 9.04495104 -2 5 C-1.34 5 -0.68 5 0 5 C0 3.35 0 1.7 0 0 Z " fill="#707070" transform="translate(322,148)"/>
<path d="M0 0 C1.32 0 2.64 0 4 0 C4.95024979 3.69541586 4.95024979 6.30458414 4 10 C1.16625119 6.79663178 0.4794463 4.21912747 0 0 Z " fill="#C3BEBE" transform="translate(219,391)"/>
<path d="M0 0 C3.70270486 5.5540573 4.22186294 9.45504337 4 16 C3.67 16 3.34 16 3 16 C3 14.35 3 12.7 3 11 C2.34 11 1.68 11 1 11 C0.67 7.37 0.34 3.74 0 0 Z " fill="#8E8D8D" transform="translate(413,174)"/>
<path d="M0 0 C0.66 0 1.32 0 2 0 C1.35455571 3.48539917 -0.10134397 6.02819057 -2 9 C-3 6 -3 6 -1.5625 2.8125 C-1.046875 1.884375 -0.53125 0.95625 0 0 Z " fill="#F0ECEE" transform="translate(294,383)"/>
<path d="M0 0 C2.62374802 5.24749603 3.09534716 8.08847633 3 14 C2.67 14 2.34 14 2 14 C2 12.02 2 10.04 2 8 C1.34 8 0.68 8 0 8 C0 5.36 0 2.72 0 0 Z " fill="#757575" transform="translate(418,196)"/>
<path d="M0 0 C0.33 0.66 0.66 1.32 1 2 C0.67 2.66 0.34 3.32 0 4 C0.66 4.33 1.32 4.66 2 5 C1.01 5.66 0.02 6.32 -1 7 C-1 6.34 -1 5.68 -1 5 C-2.32 5.33 -3.64 5.66 -5 6 C-3.35 4.02 -1.7 2.04 0 0 Z " fill="#D9D1D1" transform="translate(141,350)"/>
<path d="M0 0 C3.3 0 6.6 0 10 0 C9.01 0.33 8.02 0.66 7 1 C7 1.66 7 2.32 7 3 C2.25 2.25 2.25 2.25 0 0 Z " fill="#BDB5B5" transform="translate(170,348)"/>
<path d="M0 0 C-2.98646769 1.99097846 -5.59687262 2.94124926 -9 4 C-9.33 3.34 -9.66 2.68 -10 2 C-6.3558226 -0.4294516 -4.28758728 -0.16179575 0 0 Z " fill="#D1CBCC" transform="translate(154,348)"/>
<path d="M0 0 C2.64 0 5.28 0 8 0 C7.34 1.32 6.68 2.64 6 4 C4.02 3.01 2.04 2.02 0 1 C0 0.67 0 0.34 0 0 Z " fill="#E1D3D3" transform="translate(202,471)"/>
<path d="M0 0 C0.33 0.99 0.66 1.98 1 3 C-0.65 4.32 -2.3 5.64 -4 7 C-4.33 6.01 -4.66 5.02 -5 4 C-4.34 4 -3.68 4 -3 4 C-3 3.34 -3 2.68 -3 2 C-2.01 1.34 -1.02 0.68 0 0 Z " fill="#FAFAFA" transform="translate(160,47)"/>
<path d="M0 0 C0.66 0.33 1.32 0.66 2 1 C0.68 3.31 -0.64 5.62 -2 8 C-2.6875 6.25 -2.6875 6.25 -3 4 C-1.5625 1.75 -1.5625 1.75 0 0 Z " fill="#DAD0D1" transform="translate(378,399)"/>
<path d="M0 0 C0.66 0 1.32 0 2 0 C1.4409112 3.24271506 0.5867822 4.93057424 -2 7 C-2.66 7 -3.32 7 -4 7 C-4 6.34 -4 5.68 -4 5 C-3.34 5 -2.68 5 -2 5 C-1.34 3.35 -0.68 1.7 0 0 Z " fill="#F5F1F3" transform="translate(304,369)"/>
<path d="M0 0 C1.32 0 2.64 0 4 0 C4 0.66 4 1.32 4 2 C3.34 2 2.68 2 2 2 C2 2.66 2 3.32 2 4 C1.34 4 0.68 4 0 4 C0 2.68 0 1.36 0 0 Z " fill="#000000" transform="translate(288,192)"/>
<path d="M0 0 C0.66 0 1.32 0 2 0 C2.66 1.32 3.32 2.64 4 4 C2.68 4 1.36 4 0 4 C0 2.68 0 1.36 0 0 Z " fill="#000000" transform="translate(128,437)"/>
<path d="M0 0 C0.66 0 1.32 0 2 0 C2 1.32 2 2.64 2 4 C0.68 4 -0.64 4 -2 4 C-1.34 2.68 -0.68 1.36 0 0 Z " fill="#000000" transform="translate(391,429)"/>
<path d="M0 0 C0.66 0 1.32 0 2 0 C2 0.66 2 1.32 2 2 C1.34 2 0.68 2 0 2 C0 1.34 0 0.68 0 0 Z " fill="#000000" transform="translate(383,439)"/>
<path d="M0 0 C0.66 0 1.32 0 2 0 C2 0.66 2 1.32 2 2 C1.34 2 0.68 2 0 2 C0 1.34 0 0.68 0 0 Z " fill="#000000" transform="translate(335,8)"/>
<path d="" fill="#000000" transform="translate(0,0)"/>
<path d="" fill="#000000" transform="translate(0,0)"/>
<path d="" fill="#000000" transform="translate(0,0)"/>
<path d="" fill="#000000" transform="translate(0,0)"/>
<path d="" fill="#000000" transform="translate(0,0)"/>
<path d="" fill="#000000" transform="translate(0,0)"/>
<path d="" fill="#000000" transform="translate(0,0)"/>
<path d="" fill="#000000" transform="translate(0,0)"/>
<path d="" fill="#000000" transform="translate(0,0)"/>
<path d="" fill="#000000" transform="translate(0,0)"/>
<path d="" fill="#000000" transform="translate(0,0)"/>
<path d="" fill="#000000" transform="translate(0,0)"/>
<path d="" fill="#000000" transform="translate(0,0)"/>
<path d="" fill="#000000" transform="translate(0,0)"/>
<path d="" fill="#000000" transform="translate(0,0)"/>
<path d="" fill="#000000" transform="translate(0,0)"/>
<path d="" fill="#000000" transform="translate(0,0)"/>
<path d="" fill="#000000" transform="translate(0,0)"/>
<path d="" fill="#000000" transform="translate(0,0)"/>
<path d="" fill="#000000" transform="translate(0,0)"/>
<path d="" fill="#000000" transform="translate(0,0)"/>
<path d="" fill="#000000" transform="translate(0,0)"/>
<path d="" fill="#000000" transform="translate(0,0)"/>
<path d="" fill="#000000" transform="translate(0,0)"/>
<path d="" fill="#000000" transform="translate(0,0)"/>
<path d="" fill="#000000" transform="translate(0,0)"/>
<path d="" fill="#000000" transform="translate(0,0)"/>
<path d="" fill="#000000" transform="translate(0,0)"/>
<path d="" fill="#000000" transform="translate(0,0)"/>
</svg>
